<?xml version="1.0" encoding="UTF-8"?>
<svg id="Layer_2" data-name="Layer 2" xmlns="http://www.w3.org/2000/svg" viewBox="0 0 2917.79 432.01">
  <defs>
    <style>
      .cls-1 {
        fill: #df6c25;
      }

      .cls-2 {
        fill: #fe914e;
      }
    </style>
  </defs>
  <g id="Layer_1-2" data-name="Layer 1">
    <g>
      <path class="cls-1" d="M0,0h174v420H0V0Z"/>
      <path class="cls-1" d="M189,321.6V108h186c-9.6,86.4-13.2,134.4-13.2,182.4,0,42,8.4,58.8,28.8,58.8s30-16.8,27.6-47.4l-15.6-193.8h118.8v210c0,74.4-60.6,114-174,114s-158.4-34.8-158.4-110.4Z"/>
    </g>
    <g>
      <path class="cls-1" d="M862.8,274.21V0h174v124.2c24.6-18,57.6-28.8,91.8-28.8,81.6,0,135.6,60,135.6,144.6,0,111.6-96,192-224.4,192-119.4,0-177-51-177-157.8ZM1093.2,324.61c0-89.4-19.8-167.4-43.2-167.4-12,0-18,19.8-18,63.6,0,94.2,18.6,167.4,42.6,167.4,12.6,0,18.6-20.4,18.6-63.6Z"/>
      <path class="cls-1" d="M1254,348.01c0-43.8,24-72,87-99.6l61.2-27c25.8-11.4,37.8-25.2,37.8-43.8,0-16.2-7.8-24.6-25.8-24.6-33,0-76.2,34.8-130.8,105.6V121.21c58.2-15.6,126-25.2,180.6-25.2,101.4,0,143.4,36.6,137.4,118.2l-6.6,90c-1.2,15.6,4.8,24.6,16.8,24.6,9,0,16.2-3,27-12,0,64.8-45,112.2-108.6,112.2-45,0-74.4-22.8-82.8-65.4-14.4,39-56.4,68.4-106.2,68.4s-87-31.2-87-84ZM1439.4,322.21v-83.4l-9.6,6.6c-25.8,17.4-38.4,38.4-38.4,69,0,22.2,10.2,37.8,24.6,37.8,13.2,0,23.4-13.2,23.4-30Z"/>
      <path class="cls-1" d="M1633.2,408.01l-7.8-119.4c42,55.8,93,90.6,132,90.6,16.8,0,26.4-7.8,26.4-20.4,0-13.8-11.4-24.6-39.6-37.2l-34.8-15.6c-60-27-88.2-60.6-88.2-105,0-64.8,62.4-105,163.2-105,48.6,0,96.6,9.6,133.8,27v102c-31.8-45-79.2-75-117.6-75-16.8,0-26.4,6.6-26.4,18,0,12,10.2,20.4,37.8,31.8l36,15c63,26.4,88.2,56.4,88.2,104.4,0,70.2-60,112.8-158.4,112.8-46.2,0-102.6-9.6-144.6-24Z"/>
      <path class="cls-1" d="M1959,291.61v-100.2h-42v-75c91.8,0,120.6-24.6,135-116.4h78v108h78v84h-78v80.4c0,47.4,13.8,65.4,46.8,65.4,13.8,0,25.8-3,34.2-7.8-10.8,61.2-62.4,102-128.4,102-78.6,0-123.6-51.6-123.6-140.4Z"/>
      <path class="cls-1" d="M2195.99,267.01c0-96.6,90-171,207-171s207,69,207,165-90,171-207,171-207-69-207-165ZM2436.6,316.21c0-93.6-19.2-179.4-45-179.4-13.2,0-22.2,22.2-22.2,75,0,93.6,19.2,179.4,45,179.4,13.2,0,22.2-22.2,22.2-75Z"/>
      <path class="cls-1" d="M2614.79,408.01l-7.8-119.4c42,55.8,93,90.6,132,90.6,16.8,0,26.4-7.8,26.4-20.4,0-13.8-11.4-24.6-39.6-37.2l-34.8-15.6c-60-27-88.2-60.6-88.2-105,0-64.8,62.4-105,163.2-105,48.6,0,96.6,9.6,133.8,27v102c-31.8-45-79.2-75-117.6-75-16.8,0-26.4,6.6-26.4,18,0,12,10.2,20.4,37.8,31.8l36,15c63,26.4,88.2,56.4,88.2,104.4,0,70.2-60,112.8-158.4,112.8-46.2,0-102.6-9.6-144.6-24Z"/>
    </g>
    <path class="cls-2" d="M756.61,171.05c1.87,1.22,5.73,26.48,10.26,33.3,5.21,7.86,20.87,15.18,29.74,18.84-.22,12.92-12.33,22.87-12.33,35.88,0,8.86,14.5,33.1,12.4,35.98-8.64,3.31-22.66,8.01-28.44,15.13-7.42,9.13-7.7,33.67-11.13,36.13-5.9,4.26-23.26-2.86-33.2-.85-12.83,2.59-23.16,20.8-30.91,21.48-4.38.37-20.8-19.38-29.96-21.53-9.17-2.14-32.01,4.48-35.34,1.69-1.79-1.52-2.84-25.48-8.04-33-4.63-6.64-29.37-18.76-29.76-20.65-1.57-7.49,10.34-22.15,10.34-34.39,0-12.92-10.56-23.72-10.41-32.4.12-6.02,24.73-13.54,30.19-22.92,4.16-7.17,6.3-31.55,7.7-32.72,3.51-2.96,25.55,3.33,34.77,1.14,10.24-2.44,25.83-21.45,30.93-21.45,7.47,0,16.94,23.19,39.85,22.7,5.93-.12,19.23-5.05,23.34-2.36h.03Z"/>
  </g>
</svg>