<?xml version="1.0" encoding="UTF-8"?>
<svg id="Layer_1" xmlns="http://www.w3.org/2000/svg" version="1.1" viewBox="0 0 800 800">
  <!-- Generator: Adobe Illustrator 29.5.1, SVG Export Plug-In . SVG Version: 2.1.0 Build 141)  -->
  <defs>
    <style>
      .st0 {
        fill: #fff;
        isolation: isolate;
      }
    </style>
  </defs>
  <path class="st0" d="M722.2,262.5c-18-37.6-56.4-60.4-133.1-106.1l-46.2-27.5c-69.6-41.5-104.5-62.2-142.9-62.2s-73.3,20.7-142.9,62.2l-46.2,27.5c-76.7,45.7-115,68.5-133.1,106.1-18,37.6-11.7,81.5,1,169.4l9.3,64.6c16.2,112.9,24.4,169.4,63.5,203.1,39.2,33.7,96.6,33.7,211.5,33.7h73.7c114.9,0,172.3,0,211.5-33.7s47.3-90.2,63.5-203.1l9.3-64.6c12.6-87.9,19-131.9,1-169.4h.1ZM425,600c0,13.8-11.2,25-25,25s-25-11.2-25-25v-100c0-13.8,11.2-25,25-25s25,11.2,25,25v100Z"/>
</svg>