<svg width="12" height="18" viewBox="0 0 12 18" fill="none" xmlns="http://www.w3.org/2000/svg">
<path d="M11.327 10.5891C11.3415 10.4491 11.3263 10.3076 11.2823 10.1739C11.2383 10.0402 11.1666 9.91725 11.0718 9.81315L8.52503 7.01521L11.6605 1.48701C11.7677 1.29483 11.8084 1.07267 11.7765 0.854961C11.7446 0.637252 11.6418 0.436147 11.484 0.282809C11.3262 0.129472 11.1222 0.0324643 10.9037 0.0068182C10.6851 -0.0188279 10.4642 0.02832 10.2752 0.140956L0.481172 5.9785C0.349813 6.05838 0.238642 6.16748 0.156297 6.29731C0.0739523 6.42714 0.0226511 6.5742 0.00638005 6.72708C-0.0110859 6.88102 0.0074555 7.03692 0.0605414 7.18246C0.113627 7.32801 0.199805 7.45924 0.312278 7.56579L3.66786 10.7117L0.557856 16.1747C0.447839 16.3715 0.4075 16.5996 0.44338 16.8221C0.47926 17.0446 0.589255 17.2484 0.755527 17.4006C0.847015 17.4885 0.95569 17.5565 1.07473 17.6004C1.22846 17.6595 1.39442 17.6797 1.55785 17.6593C1.72129 17.6388 1.87713 17.5783 2.01155 17.4831L10.8741 11.2818C10.9946 11.2054 11.0975 11.104 11.1756 10.9845C11.2537 10.8651 11.3054 10.7302 11.327 10.5891Z" fill="white"/>
</svg>
