<svg width="114" height="119" viewBox="0 0 114 119" fill="none" xmlns="http://www.w3.org/2000/svg">
<path d="M91.8321 11.1889C92.8601 11.86 94.9846 25.7606 97.4793 29.513C100.344 33.8407 108.966 37.8671 113.845 39.8803C113.722 46.988 107.06 52.4661 107.06 59.6287C107.06 64.5041 115.038 77.8432 113.886 79.4318C109.13 81.2533 101.413 83.8417 98.2331 87.7585C94.1485 92.7846 93.9977 106.288 92.1062 107.644C88.8577 109.986 79.304 106.069 73.835 107.178C66.7759 108.603 61.0876 118.627 56.8248 118.997C54.4124 119.203 45.3796 108.329 40.3354 107.151C35.2913 105.973 22.7221 109.616 20.8854 108.082C19.8985 107.247 19.3228 94.0583 16.4581 89.9223C13.9086 86.2657 0.297741 79.5962 0.0784318 78.5554C-0.785099 74.4331 5.76677 66.3667 5.76677 59.6287C5.76677 52.5209 -0.0449298 46.5772 0.0373112 41.7976C0.105845 38.4834 13.6482 34.3474 16.65 29.1844C18.9391 25.2402 20.1178 11.8189 20.8854 11.1752C22.8181 9.54552 34.9486 13.0104 40.0202 11.8052C45.6537 10.4631 54.2342 0 57.0441 0C61.1561 0 66.3647 12.7639 78.975 12.49C82.2373 12.4215 89.5567 9.70986 91.8183 11.1889H91.8321Z" fill="#DF6C25"/>
<path d="M63.8384 79.9198C64.9479 79.9198 65.4994 80.3818 65.4994 81.3121C65.4994 81.6855 65.2749 82.0146 64.826 82.2993C64.3771 82.5904 63.5755 82.7297 62.4276 82.7297H37V39.0062H52.9684V80.6919H58.8235C60.1381 80.6919 61.2732 80.5653 62.2223 80.3059C63.1715 80.0464 63.7102 79.9198 63.832 79.9198H63.8384Z" fill="#FFEADE"/>
<path d="M63.1779 41.3542C63.7422 41.3985 64.5182 41.4744 65.5122 41.5883C66.5062 41.7023 67.5002 42.0693 68.5007 42.6832C70.4823 43.8982 71.4763 45.6386 71.4763 47.9042C71.4763 49.7584 70.8286 51.3215 69.5332 52.5999C68.3211 53.796 66.891 54.3908 65.2429 54.3908H64.7426L63.1458 54.2073C61.9979 54.2073 61.4207 54.6313 61.4207 55.473C61.4207 55.8211 61.5746 56.1312 61.8889 56.397C62.2031 56.6628 62.6905 56.7957 63.3574 56.7957L65.4801 56.6121C65.4801 56.6121 65.5315 56.6121 65.5635 56.6121C69.8666 56.6185 73.2206 57.6563 75.6383 59.7321C76.8311 60.7446 77.7354 61.966 78.3639 63.4089C78.9923 64.8518 79.3002 66.6238 79.3002 68.7248C79.3002 70.8259 78.5562 72.832 77.0748 74.7495C75.5101 76.7683 73.5733 78.0467 70.9055 78.9516C70.4053 79.1478 69.8153 79.2174 69.251 79.3693C68.8406 79.4769 68.5712 80.1541 68.5712 80.5717C68.5712 80.8122 68.6802 81.2299 68.8277 81.3755C69.3215 81.8628 69.764 82.0463 70.2514 81.9324C74.1313 81.0464 76.5233 79.344 78.7102 76.8443C80.9034 74.3129 82 71.2942 82 67.7882C82 64.2822 80.82 61.4344 78.4601 59.0423C76.6388 57.1944 74.3878 55.9034 71.7072 55.1693C71.1043 55.0047 70.9312 54.2706 71.3865 53.8529C71.5148 53.7327 71.643 53.6061 71.7585 53.4795C73.3232 51.8088 74.1056 49.8723 74.1056 47.67C74.1056 45.4677 73.304 43.5502 71.6943 41.987C70.944 41.2846 69.9308 40.6517 68.6546 40.0885C67.3784 39.5189 65.198 39.1645 62.1069 39.0253C61.5939 39.0127 60.4075 39 58.5413 39C58.3617 39 58.1757 39.0506 58.0411 39.1645C56.9316 40.0948 57.5793 40.9492 58.4771 41.1517" fill="#FFEADE"/>
</svg>
