<?xml version="1.0" encoding="UTF-8"?>
<svg id="Layer_2" data-name="Layer 2" xmlns="http://www.w3.org/2000/svg" viewBox="0 0 992.99 144">
  <defs>
    <style>
      .cls-1 {
        fill: #df6c25;
      }
    </style>
  </defs>
  <g id="Layer_1-2" data-name="Layer 1">
    <g>
      <path class="cls-1" d="M0,0h60v99.6c0,15.4,3.8,20.6,15.4,20.6,13.6,0,24.2-7.2,41.6-28.2l-12,48H0V0Z"/>
      <path class="cls-1" d="M116,107.2V36h62c-3.2,28.8-4.4,44.8-4.4,60.8,0,14,2.8,19.6,9.6,19.6s10-5.6,9.2-15.8l-5.2-64.6h39.6v70c0,24.8-20.2,38-58,38s-52.8-11.6-52.8-36.8Z"/>
      <path class="cls-1" d="M230.8,118.2c0-15.4,10.8-25.8,29-25.8s29,10.4,29,25.8-10.8,25.8-29,25.8-29-10.4-29-25.8Z"/>
      <path class="cls-1" d="M296.8,0h62.2c48.8,0,76.4,13.2,76.4,36.4,0,16.2-13.6,26.6-37.2,29.4,27.6,4.6,43.6,18.2,43.6,37.6,0,22.4-21.4,36.6-55.4,36.6h-89.6V0ZM381.8,101c0-17.4-7.8-27.4-21.4-27.4h-5.6v32.8c0,10.2,4.6,15.8,13,15.8,9.2,0,14-7.2,14-21.2ZM379.4,41.4c0-13.8-7-21.6-19.4-21.6h-5v24c0,9.4,4,14.4,11.6,14.4,8.2,0,12.8-6,12.8-16.8Z"/>
      <path class="cls-1" d="M438.4,116c0-14.6,8-24,29-33.2l20.4-9c8.6-3.8,12.6-8.4,12.6-14.6,0-5.4-2.6-8.2-8.6-8.2-11,0-25.4,11.6-43.6,35.2v-45.8c19.4-5.2,42-8.4,60.2-8.4,33.8,0,47.8,12.2,45.8,39.4l-2.2,30c-.4,5.2,1.6,8.2,5.6,8.2,3,0,5.4-1,9-4,0,21.6-15,37.4-36.2,37.4-15,0-24.8-7.6-27.6-21.8-4.8,13-18.8,22.8-35.4,22.8s-29-10.4-29-28ZM500.2,107.4v-27.8l-3.2,2.2c-8.6,5.8-12.8,12.8-12.8,23,0,7.4,3.4,12.6,8.2,12.6,4.4,0,7.8-4.4,7.8-10Z"/>
      <path class="cls-1" d="M564.8,136l-2.6-39.8c14,18.6,31,30.2,44,30.2,5.6,0,8.8-2.6,8.8-6.8,0-4.6-3.8-8.2-13.2-12.4l-11.6-5.2c-20-9-29.4-20.2-29.4-35,0-21.6,20.8-35,54.4-35,16.2,0,32.2,3.2,44.6,9v34c-10.6-15-26.4-25-39.2-25-5.6,0-8.8,2.2-8.8,6,0,4,3.4,6.8,12.6,10.6l12,5c21,8.8,29.4,18.8,29.4,34.8,0,23.4-20,37.6-52.8,37.6-15.4,0-34.2-3.2-48.2-8Z"/>
      <path class="cls-1" d="M673.4,97.2v-33.4h-14v-25c30.6,0,40.2-8.2,45-38.8h26v36h26v28h-26v26.8c0,15.8,4.6,21.8,15.6,21.8,4.6,0,8.6-1,11.4-2.6-3.6,20.4-20.8,34-42.8,34-26.2,0-41.2-17.2-41.2-46.8Z"/>
      <path class="cls-1" d="M752.4,89c0-32.2,30-57,69-57s69,23,69,55-30,57-69,57-69-23-69-55ZM832.6,105.4c0-31.2-6.4-59.8-15-59.8-4.4,0-7.4,7.4-7.4,25,0,31.2,6.4,59.8,15,59.8,4.4,0,7.4-7.4,7.4-25Z"/>
      <path class="cls-1" d="M891.99,136l-2.6-39.8c14,18.6,31,30.2,44,30.2,5.6,0,8.8-2.6,8.8-6.8,0-4.6-3.8-8.2-13.2-12.4l-11.6-5.2c-20-9-29.4-20.2-29.4-35,0-21.6,20.8-35,54.4-35,16.2,0,32.2,3.2,44.6,9v34c-10.6-15-26.4-25-39.2-25-5.6,0-8.8,2.2-8.8,6,0,4,3.4,6.8,12.6,10.6l12,5c21,8.8,29.4,18.8,29.4,34.8,0,23.4-20,37.6-52.8,37.6-15.4,0-34.2-3.2-48.2-8Z"/>
    </g>
  </g>
</svg>