<?xml version="1.0" encoding="UTF-8"?>
<svg id="Layer_2" data-name="Layer 2" xmlns="http://www.w3.org/2000/svg" viewBox="0 0 1437.4 387.92">
  <defs>
    <style>
      .cls-1 {
        fill: #df6c25;
      }
    </style>
  </defs>
  <g id="Layer_1-2" data-name="Layer 1">
    <g>
      <path class="cls-1" d="M216.72,351c8.93,0,13.4,3.79,13.4,11.38,0,3.03-1.81,5.73-5.44,8.09-3.63,2.36-10.08,3.54-19.35,3.54H0V16.18h128.97v341.14h47.29c10.62,0,19.76-1.05,27.44-3.16,7.67-2.11,12.01-3.16,13.02-3.16Z"/>
      <path class="cls-1" d="M494.04,26.81l-1.52,31.36v151.22c0,49.9-14.33,90.45-42.99,121.64-29.33,31.86-68.28,47.8-116.83,47.8-51.93,0-92.39-16.27-121.38-48.81-26.98-29.84-40.46-68.11-40.46-114.81V16.18h129.22v341.14c12.98,1.86,27.27,2.78,42.86,2.78s31.44-3.12,47.54-9.36c16.1-6.24,30.22-16.02,42.36-29.33,26.3-28.66,39.62-70.55,39.96-125.68V58.67c0-5.06-.38-11.04-1.14-17.95-.76-6.91-1.14-11.63-1.14-14.16,0-8.76,4.13-13.15,12.39-13.15,7.41,0,11.13,4.47,11.13,13.4Z"/>
      <path class="cls-1" d="M577.5,330.08c-30.85,0-51.93-.25-63.22-.76l-7.33,17.45c-2.19,4.89-4.22,10.03-6.07,15.43-3.88,10.45-9.27,15.68-16.18,15.68-3.2,0-5.82-1.01-7.84-3.03s-3.03-4.13-3.03-6.32c0-3.71,1.6-7.84,4.8-12.39,5.06-7.08,10.03-16.35,14.92-27.82-14.5-1.35-21.75-5.56-21.75-12.64s4.13-10.62,12.39-10.62c5.06,0,10.96.84,17.7,2.53L628.08,1.08l172.97,374.02h-131.75l-20.99-45.01h-70.81ZM522.37,309.6c16.18,1.35,30.68,2.02,43.5,2.02h74.09l-63.22-136.3-54.37,134.28Z"/>
      <path class="cls-1" d="M828.25,337.85l.76,25.29c0,4.39-1.18,7.76-3.54,10.12-2.36,2.36-5.18,3.54-8.47,3.54s-6.03-1.1-8.22-3.29c-2.19-2.19-3.29-4.59-3.29-7.21s.21-5.06.63-7.33c.42-2.28.8-4.85,1.14-7.71.84-4.89,1.26-17.11,1.26-36.67V0l274.88,217.99V67.27c0-11.46-.34-19.64-1.01-24.53-.84-7.92-1.26-13.49-1.26-16.69,0-8.43,3.62-12.64,10.87-12.64,2.87,0,5.6,1.01,8.22,3.03,2.61,2.02,3.92,4.97,3.92,8.85v8.85l-1.01,36.67v317.12l-274.88-215.71v165.64Z"/>
      <path class="cls-1" d="M1213.85,329c-30.85,0-51.93-.25-63.22-.76l-7.33,17.45c-2.19,4.89-4.22,10.03-6.07,15.43-3.88,10.45-9.27,15.68-16.18,15.68-3.2,0-5.82-1.01-7.84-3.03s-3.03-4.13-3.03-6.32c0-3.71,1.6-7.84,4.8-12.39,5.06-7.08,10.03-16.35,14.92-27.82-14.5-1.35-21.75-5.56-21.75-12.64s4.13-10.62,12.39-10.62c5.06,0,10.96.84,17.7,2.53L1264.43,0l172.97,374.02h-131.75l-20.99-45.01h-70.81ZM1158.72,308.52c16.18,1.35,30.68,2.02,43.5,2.02h74.09l-63.22-136.3-54.37,134.28Z"/>
    </g>
  </g>
</svg>