<svg width="272" height="275" viewBox="0 0 272 275" fill="none" xmlns="http://www.w3.org/2000/svg">
<path d="M38.8522 0.682445C39.6566 3.46857 39.7294 5.72293 42.8564 6.78648C44.5244 7.35461 45.2789 7.39551 46.8833 6.60467C49.8921 5.12298 48.7695 1.76417 50.1648 0.814252C51.7511 -0.267475 56.6779 0.477917 58.6869 0.550638C59.3186 0.573364 59.9549 0.164307 60.7867 0.309749C62.4638 0.596089 62.3684 3.10497 62.8501 4.29123C64.4636 8.25908 70.954 8.02273 71.9721 3.93672C72.1948 3.04134 71.9221 1.23694 72.7175 0.764257C72.8357 0.69608 75.19 0.0824959 75.3309 0.0779508C75.8218 0.0597706 76.2217 0.527913 76.7762 0.550638C78.4852 0.623359 80.1896 0.437011 81.8985 0.309749C83.5302 0.591544 83.5848 3.23678 84.1165 4.44122C85.6255 7.89093 89.4388 8.24544 92.3931 6.32742C93.9975 5.2866 94.0839 2.59592 94.5747 0.905154C95.3519 -0.0902168 103.906 0.664265 105.606 0.491552C107.015 2.27322 106.424 4.60484 108.537 6.04563C112.378 8.65905 117.646 5.95927 116.8 1.10514L117.255 0.655175C121.445 0.709716 125.713 -0.112942 129.885 0.614269C131.035 0.814252 131.476 4.35032 132.449 5.59112C135.799 9.85894 142.916 6.48196 141.221 0.941514C141.83 0.0188649 152.37 0.655175 153.802 0.832433C154.938 1.37784 154.461 2.59592 154.751 3.47766C155.733 6.45014 158.383 8.39543 161.578 7.26825C162.31 7.00918 164.246 5.48659 164.564 4.823C165.464 2.97316 164.128 0.768802 167.323 0.34611C169.296 0.846068 176.445 -0.544724 177.39 1.15513C178.549 3.23677 177.609 6.26834 181.036 7.38643C184.208 8.41816 186.353 6.71375 187.421 3.85036C187.712 3.07315 187.581 1.98234 187.93 1.41875C188.79 0.0325001 193.825 0.218848 195.362 0.32793C199.425 0.618814 197.498 2.53229 199.42 4.98663C201.207 7.26825 204.347 8.17727 206.815 6.3456C209.497 4.35486 207.156 0.696081 211.038 0.309749C212.233 0.191578 216.224 0.177942 217.373 0.309749C221.591 0.786982 219.26 5.66384 223.487 6.86829C226.609 7.75912 229.254 6.75466 230.209 3.4913C230.654 1.9687 229.991 0.618814 231.872 0.32793C233.358 0.100676 240.544 0.146127 241.644 0.773347C242.599 1.31876 242.135 2.62319 242.403 3.63674C243.476 7.70913 249.407 8.49088 252.234 5.90019C254.479 3.84581 251.102 0.968785 256.047 0.432466C259.397 0.0688607 263.901 1.0915 267.142 0.923334C268.478 0.855158 269.146 -0.244749 270.355 1.35057L270.564 15.7812C270.233 16.8811 267.765 16.8084 266.683 17.6356C263.988 19.6899 264.02 23.4942 266.537 25.6531C267.983 26.8939 269.146 26.4757 270.464 27.4529L270.76 36.5431C270.128 38.3156 268.665 38.0293 267.387 38.552C264.179 39.861 264.02 45.3332 266.501 47.5603C267.601 48.5511 268.692 48.2648 269.701 48.7375C271.246 49.4601 270.628 53.5053 270.614 55.0415C270.605 56.005 271.083 57.2595 270.651 58.3821C269.883 60.3865 266.769 59.5048 265.438 62.5454C264.31 65.1225 265.129 67.8177 267.56 69.2812C269.165 70.2448 270.846 69.9675 270.923 72.5537C270.983 74.4444 271.11 78.0714 270.923 79.803C270.687 81.9756 269.228 81.3165 267.637 81.9438C263.701 83.4891 263.015 89.0886 266.937 91.0248C269.505 92.2884 270.61 91.0975 270.933 94.8745C271.055 96.3153 271.014 99.1605 270.896 100.592C270.701 102.978 268.924 102.351 267.333 103.06C263.583 104.733 263.351 110.805 267.087 112.596C268.783 113.409 270.624 112.459 270.928 115.091C271.092 116.482 271.001 120.836 270.819 122.295C270.496 124.904 267.606 124.067 266.083 125.645C263.679 128.131 264.238 133.139 267.533 134.476C268.392 134.821 269.814 134.644 270.296 135.33C270.992 136.321 271.196 144.448 270.764 145.411C270.042 147.025 266.606 146.093 265.26 148.956C263.888 151.87 265.092 154.433 267.806 155.919C269.324 156.751 270.219 156.156 270.778 158.378C270.969 159.133 270.978 165.282 270.846 166.009C270.383 168.559 268.06 166.973 266.088 169.091C264.088 171.241 264.169 173.909 265.938 176.195C267.537 178.267 269.037 177.313 270.31 178.158C271.583 179.004 270.41 186.68 270.564 188.348C270.183 189.621 267.201 189.548 266.078 190.498C264.542 191.803 264.301 194.684 264.956 196.489C266.074 199.561 268.137 198.843 270.564 200.079C270.969 200.702 271.11 208.469 270.914 209.515C270.569 211.351 268.183 210.574 266.687 211.624C263.456 213.892 263.479 218.478 266.892 220.491C269.124 221.805 270.66 220.555 270.933 224.318C270.973 224.859 270.655 225.368 270.678 225.813C270.751 227.231 271.333 231.168 270.773 232.304C270.219 233.436 267.56 232.895 266.424 233.985C265.033 235.331 264.147 237.644 264.719 239.553C264.901 240.158 266.692 242.239 267.215 242.567C268.365 243.289 270.587 242.789 270.91 244.525C271.11 245.594 271.096 252.77 270.696 253.647C270.146 254.852 268.683 254.488 267.651 254.825C265.251 255.602 264.315 259.82 266.097 261.71C267.578 263.283 270.201 262.642 270.783 264.565C271.083 265.551 271.078 270.801 270.933 271.987C270.855 272.609 270.56 273.05 270.251 273.569L261.115 274.259L258.997 273.914C258.156 273.9 257.338 274.191 256.502 274.168C251.439 274.014 253.811 272.419 251.761 269.71C249.125 266.224 244.626 267.605 243.008 271.228C242.721 271.873 242.671 272.891 242.39 273.323C241.626 274.496 237.958 273.732 236.663 274.232C235.39 273.9 231.645 274.559 230.95 273.323C230.322 272.21 230.391 270.419 229.441 269.101C227.663 266.633 223.991 266.778 222.032 268.96C220.241 270.951 221.728 273.45 217.928 273.909C216.701 274.055 210.106 274.237 209.36 273.796C208.597 273.132 208.906 272.06 208.615 271.223C207.015 266.596 201.443 265.824 199.398 270.469C198.952 271.482 199.075 273.073 198.066 273.664C197.575 273.955 194.921 274.214 194.139 274.259C192.948 274.332 188.403 274.391 187.64 273.8C187.112 271.319 186.671 268.151 183.726 267.451C178.468 266.201 178.736 270.819 176.177 273.796C172.764 274.068 169.323 274.259 165.914 273.796C165.11 273.414 165.378 271.914 165.082 271.005C163.61 266.487 157.379 266.278 155.301 270.419C154.202 272.619 155.024 274.132 151.552 274.214C150.961 274.228 150.402 273.928 149.788 273.928C147.125 273.941 144.43 274.073 141.775 273.796C140.085 271.396 141.207 269.114 137.857 267.76C136.13 267.06 135.185 267.183 133.521 267.946C129.999 269.56 131.213 273.037 129.404 273.787C125.731 274.314 122.022 274.068 118.327 273.714C116.782 273.055 117.514 270.214 115.541 268.655C112.891 266.555 108.269 267.083 107.224 270.61C106.787 272.087 107.819 273.609 105.71 273.923C103.492 274.255 99.4789 274.459 97.279 274.246C93.7793 273.9 95.2383 272.319 94.1748 270.105C93.8475 269.423 92.1795 267.864 91.475 267.678C91.1887 267.601 88.7525 267.287 88.5434 267.305C87.6299 267.392 85.5119 269.401 85.0983 270.205C84.5165 271.341 85.0619 272.569 84.162 273.491C81.2622 273.614 75.949 275.014 73.3129 273.759C72.2175 273.237 72.2675 270.405 71.1949 269.037C69.1587 266.446 63.8137 267.369 62.5911 270.319C62.1457 271.391 62.3593 273.705 61.0821 273.937C59.6459 273.746 58.2142 274.105 56.8597 274.178C56.487 274.196 56.0598 273.928 55.6553 273.937C54.1372 273.968 52.2965 274.632 50.6603 274.1C48.9104 273.537 49.5104 268.592 46.756 267.724C44.838 267.519 43.32 267.105 41.6247 268.346C39.793 269.687 39.6112 271.346 39.243 273.432C38.9022 273.982 35.6933 274.214 34.8616 274.241C33.5208 274.291 29.8166 274.387 28.6621 274.105C26.6714 273.623 27.4259 272.582 27.0168 271.201C25.3351 265.515 17.004 267.61 17.4494 273.282C16.854 273.319 16.3404 273.828 15.8223 273.914C12.9634 274.4 9.06377 274.005 6.19583 273.914C4.79595 273.868 1.69621 274.505 0.887192 273.2C-0.230895 271.391 0.991729 266.056 0.600853 263.892C0.7872 263.188 4.31872 262.783 5.26864 261.856C6.35491 260.792 7.02758 258.033 6.30037 256.629C4.91867 253.957 2.3507 255.22 0.369054 253.666L0.305423 244.221C0.587217 242.726 4.35963 243.03 5.74587 241.217C8.05477 238.19 6.34582 234.404 3.12337 232.936C2.19163 232.513 1.10536 232.958 0.537221 231.627C0.169071 230.772 0.137255 223.982 0.328148 222.823C0.700844 220.555 2.19163 221.432 3.64605 221.009C5.64134 220.432 7.28211 217.737 7.15484 215.692C7.04576 213.942 5.46862 211.406 3.70059 210.969C2.97792 210.792 2.25071 210.978 1.50078 210.756C-0.812665 210.065 0.450865 206.374 0.550857 204.702C0.632668 203.334 -0.0945433 201.379 0.891737 199.857C8.97287 200.47 9.05014 188.957 1.11445 189.121L0.296333 188.126C0.0690793 186.04 0.332693 183.885 0.296333 181.785C0.278153 180.658 -0.389973 180.085 0.341784 178.795C1.07354 177.504 3.34608 177.749 4.8414 176.658C8.48655 173.995 7.55936 169.359 3.53697 167.691C2.31889 167.187 0.705389 167.518 0.373599 166.028C0.169071 165.091 0.137255 157.919 0.373599 157.11C0.800836 155.615 2.56432 156.465 3.77331 156.006C9.65918 153.774 6.97304 144.798 0.641758 145.997C0.505406 145.361 0.341784 144.738 0.296333 144.079C0.209976 142.807 0.350874 136.603 0.946278 135.653C1.7553 134.353 4.04147 134.376 5.11411 133.489C8.52291 130.667 7.52754 125.545 3.23245 124.254C2.60068 124.063 1.55986 124.358 1.10081 123.995C-0.376338 122.827 1.04627 115.691 0.441775 113.75C2.25526 112.328 3.8324 113.437 5.58679 111.637C8.21385 108.941 7.0094 104.415 3.62787 103.047C2.9052 102.751 1.8462 102.774 1.23262 102.428C0.0236285 101.742 0.950823 97.4288 0.941733 96.1017C0.928098 94.9199 0.173616 92.9337 0.891737 91.9247C1.49623 91.0703 5.77769 92.0338 6.75033 88.6614C7.43209 86.298 6.60489 83.0164 4.24145 81.921C2.48251 81.1029 0.650848 81.8392 0.587217 79.2122C0.569037 78.5122 0.905372 77.8532 0.887192 77.3669C0.837196 75.7852 0.159981 72.29 0.76902 70.9174C1.22807 69.8902 3.43243 69.6584 4.43689 69.1539C7.96841 67.3859 8.16385 62.7408 4.85049 60.4865C3.44152 59.5275 0.941733 60.0502 0.509951 58.1867C0.7872 55.196 -0.330887 52.1236 0.773565 49.2056C1.26898 48.3466 2.3507 48.6966 3.24608 48.3602C7.01849 46.9422 8.25475 42.038 5.4459 39.0792C4.14601 37.7111 2.36434 38.6247 1.30534 37.6339C-0.453604 35.984 1.2917 30.0845 0.591762 27.662C2.7234 26.4348 4.49598 27.3438 6.20492 25.0713C7.34574 23.5532 7.32756 21.8852 7.26847 20.0672C6.0413 18.2582 5.54589 17.5719 3.33244 17.0311C2.26889 16.772 1.65985 17.5992 0.996274 16.0766C-0.249076 13.2223 1.00536 5.45477 0.632668 1.99597C1.64167 -0.671986 4.20964 0.31884 6.17765 0.32793C8.51837 0.332475 11.1818 -0.0174956 13.4134 0.000684638C17.054 0.0279551 16.295 1.15059 17.354 3.62765C18.4993 6.3047 21.7445 7.36824 24.4443 6.50014C27.7349 5.44568 26.835 1.03696 28.6439 0.446102L36.9705 0.300659L38.8476 0.682445H38.8522ZM58.755 5.52749C58.1233 4.81391 54.669 5.22297 53.6055 5.19116C51.7374 8.45906 50.3739 10.7498 46.297 10.9907C43.0336 11.1861 39.3339 10.6952 37.125 8.00455C35.9979 6.63194 36.2978 5.03662 34.2116 4.85937C33.6617 4.81391 31.7891 5.0548 31.3892 5.30024C30.8119 5.6593 30.571 7.35461 29.962 7.87275C26.985 10.418 22.8944 11.627 19.0766 10.3634C17.6267 9.88167 17.354 8.99084 16.6131 8.64995C16.3177 8.5136 15.8405 8.76358 15.2951 8.44088C14.1543 7.7773 13.5634 5.30933 13.0953 5.16389C11.9772 5.13207 10.5773 5.4275 9.51828 5.44568C8.6729 5.45931 7.94569 4.99572 6.8276 5.15934C4.55506 5.50022 5.78678 6.94101 5.77314 8.30907C5.75951 9.67714 5.2141 11.3361 5.49589 12.7905C5.69133 13.395 7.68662 13.8495 8.44564 14.3677C12.2635 16.9538 12.309 24.4668 9.37284 27.8438C8.64108 28.6846 5.95949 30.0072 5.60043 30.7935C5.18228 31.7116 5.58225 33.2024 5.42772 34.2205C11.8226 36.2613 13.0498 42.9243 10.0319 48.4966C8.60472 51.1327 5.02321 51.0509 5.1641 54.1461C5.25955 56.2141 6.83669 56.255 7.86842 57.1731C12.1999 61.0092 13.4134 67.4814 8.77743 71.6855C7.66389 72.6945 5.45499 72.8491 5.42772 74.6717C5.41863 75.4034 5.88222 76.2988 5.5777 77.2487C10.8591 80.0076 12.5998 85.9889 10.1273 91.4339C8.6229 94.7427 4.53688 94.0927 5.52316 98.7605C5.77314 99.9559 6.80487 99.5696 7.87297 100.319C12.4499 103.533 12.4271 111.382 8.30475 114.955C6.67761 116.364 4.86413 116.223 5.26409 118.982C5.59134 121.236 6.47308 120.65 7.95932 121.654C12.5089 124.727 12.2635 131.726 9.3183 135.889C8.30929 137.316 6.30946 137.712 5.74587 138.339C5.35045 138.78 5.27319 141.643 5.51407 142.052C5.60498 142.207 7.9775 143.407 8.532 143.925C12.5089 147.625 11.609 154.106 8.3502 157.81C8.25021 157.924 8.45928 158.305 8.40474 158.355C8.14112 158.592 6.45036 158.996 5.94131 159.346C4.78232 160.151 5.20501 162.087 5.5368 163.31C5.88677 164.596 6.64125 164.087 7.63662 164.75C11.8363 167.532 12.6089 175.195 9.26376 178.817C7.36846 180.867 4.85049 180.09 5.00957 183.903C5.09593 186.021 7.06849 185.999 8.43655 187.244C10.8364 189.43 11.2136 192.516 10.8454 195.63C10.6591 197.22 9.13195 201.038 7.88206 202.011C5.90495 203.547 4.4778 202.561 5.15501 206.215C5.40954 207.583 6.62762 207.356 7.41846 207.874C8.52291 208.597 10.5909 211.737 10.9591 213.019C11.9544 216.487 10.5182 221.627 8.00477 224.195C7.89115 224.314 5.47317 224.818 5.13683 225.6C5.22319 226.627 4.87322 228.286 5.46862 229.136C5.77314 229.577 8.17294 230.568 9.06377 231.572C11.709 234.549 11.8544 240.662 9.67281 243.862C8.60018 245.435 4.9823 246.771 4.85958 248.189C4.62324 250.811 6.87759 250.952 8.46837 252.384C11.9181 255.493 11.8954 261.138 9.07741 264.678C8.13203 265.869 4.88231 266.887 5.12774 268.346L5.72315 268.66L5.45044 269.428C6.39582 269.192 7.50027 269.687 8.31384 269.669C10.2773 269.628 10.1773 269.096 12.3226 269.669C13.9588 270.105 14.6497 267.546 15.4041 266.56C18.7402 262.229 27.0213 262.41 30.1893 266.86C31.4664 268.66 30.6619 270.246 33.9435 269.71C35.8251 269.401 35.807 267.883 36.5842 266.619C39.193 262.388 47.4878 261.71 51.0193 265.042C52.2692 266.219 52.9055 267.819 53.7191 269.283C53.8964 269.387 57.5188 269.796 57.7869 269.746C58.8005 269.564 58.5141 268.387 58.9232 267.546C61.9048 261.424 72.1993 261.006 75.5718 267.037C76.6172 268.905 75.7263 269.946 78.6034 269.742C81.0168 269.569 80.5032 268.374 81.5304 266.924C82.1531 266.046 82.7848 265.183 83.6166 264.483C87.1799 261.488 93.5248 262.151 96.5564 265.669C97.2836 266.515 98.1562 268.896 98.4971 269.16C98.8198 269.41 101.342 269.646 101.906 269.642C103.333 269.637 104.515 265.933 105.647 264.787C107.692 262.719 113.487 262.169 116.146 263.278C118.804 264.387 120.318 267.292 121.736 269.655L126.827 269.151C127.813 268.237 128.049 266.705 128.84 265.742C130.04 264.283 133.149 262.751 135.026 262.66C140.262 262.406 143.366 264.992 145.198 269.669C146.675 269.551 149.247 270.214 150.552 269.569C151.424 269.137 151.506 267.933 152.07 267.169C155.82 262.074 163.996 260.974 167.891 266.437C168.664 267.519 168.891 269.601 170.309 269.76C170.618 269.796 173.073 269.642 173.195 269.564C174.118 268.978 174.704 266.687 175.482 265.846C177.786 263.347 182.126 262.147 185.422 263.088C188.24 263.892 190.508 267.028 191.171 269.76L195.221 269.596C196.257 267.001 197.466 264.487 200.339 263.551C205.87 261.751 210.615 263.897 212.706 269.301C213.71 269.201 216.192 269.632 216.783 269.137C217.373 268.642 218.232 266.519 219.051 265.674C221.064 263.597 224.196 262.678 227.041 262.779C230.141 262.888 232.29 265.306 233.949 267.664C234.64 268.646 234.036 269.337 235.863 269.669C236.345 269.755 238.758 269.778 238.972 269.582C239.394 269.196 239.476 268.042 239.808 267.424C242.58 262.274 250.534 261.924 254.507 265.806C254.807 266.096 256.111 267.669 256.357 268.028C256.634 268.437 256.475 269.56 257.352 269.873L265.124 269.66C267.542 266.751 265.606 266.874 263.851 265.515C259.224 261.942 259.793 254.652 264.297 251.179C264.96 250.67 266.019 250.47 266.078 250.398C266.147 250.311 266.342 248.448 266.324 248.207C266.201 246.607 265.129 246.98 264.315 246.348C259.824 242.871 258.874 237.508 261.674 232.567C261.902 232.172 262.611 230.877 262.806 230.681C264.101 229.381 266.333 229.727 266.242 227.159C266.147 224.536 264.533 225.191 263.479 224.104C263.27 223.886 261.847 222.182 261.633 221.877C259.347 218.655 259.915 212.028 262.601 209.201C264.37 207.342 266.628 208.188 266.133 204.706C265.924 203.243 262.788 201.847 261.756 200.334C259.793 197.457 259.847 192.757 261.379 189.721C262.297 187.903 264.074 186.003 266.078 185.521C266.124 184.699 266.201 183.817 266.115 182.99C265.933 181.199 265.074 181.735 263.86 180.722C261.533 178.776 260.347 177.031 260.252 173.941C260.17 171.273 260.756 167.405 262.829 165.523C264.683 163.841 267.092 164.205 266.124 160.433C265.365 159.951 264.456 159.674 263.724 159.137C259.629 156.124 259.72 148.911 262.788 145.27C263.347 144.607 265.86 142.63 265.965 142.416C266.21 141.911 266.21 139.862 266.128 139.23C265.901 137.475 264.751 137.898 263.915 137.294C259.197 133.88 259.247 127.94 262.247 123.308C262.501 122.913 263.001 122.172 263.329 121.89C265.115 120.354 266.683 121.4 266.097 117.841C265.824 116.186 263.983 115.959 262.951 114.955C259.12 111.241 259.824 104.519 263.283 100.81C264.37 99.6423 266.392 99.0151 266.447 97.3152C266.515 95.1154 265.174 95.6381 263.929 94.7381C259.111 91.2475 259.143 83.1664 263.388 79.1985C264.133 78.5032 265.842 77.9259 266.201 77.1669L266.433 73.799C258.465 71.4537 257.961 58.1912 266.069 55.7869C266.901 52.1281 263.77 51.6145 262.033 49.5011C259.247 46.1104 259.774 39.1837 262.783 36.0567C264.556 34.216 266.592 35.0295 266.128 31.5253C265.947 30.1572 265.247 30.6526 264.319 30.0163C260.388 27.3075 259.443 23.8941 260.515 19.3081C261.361 15.6903 263.501 14.9994 266.056 12.7814L265.838 5.26842C265.501 4.82755 262.188 4.80028 261.42 4.8321C260.283 4.87755 257.016 5.09116 256.429 5.88655C256.188 6.2138 256.461 6.65467 256.293 6.93192C253.511 11.4861 247.048 13.2723 242.317 10.6861C240.412 9.64533 238.285 5.00935 236.99 4.85482C236.763 4.82755 234.827 5.0139 234.654 5.12298C234.208 5.39568 233.754 6.72739 233.358 7.23644C229.072 12.736 221.882 13.0587 217.246 7.71821C216.446 6.79557 215.905 4.88209 214.678 4.81391C212.528 4.69574 212.324 6.98191 211.097 8.35907C208.17 11.6497 201.298 12.5724 197.784 9.66351C197.402 9.3499 195.516 7.46369 195.307 7.16826C194.644 6.22743 195.243 4.87755 193.362 5.0139C189.758 5.27751 191.407 8.24999 189.167 9.81349C184.931 12.7678 178.44 12.4178 175.295 8.01819C174.659 7.1319 174.273 5.06389 173 4.93209C172.695 4.90027 169.718 5.21388 169.573 5.30478C168.405 6.04563 167.878 8.1909 166.846 9.21809C164.492 11.5633 159.419 12.0906 156.351 11.277C153.974 10.6452 153.247 9.88167 151.82 7.96365C151.324 7.30007 150.806 5.86837 150.479 5.53204C149.711 4.74119 146.516 4.84573 145.643 5.43659C144.998 5.87292 143.421 8.8363 142.621 9.57715C139.394 12.5678 132.717 12.3042 129.54 9.26354C128.076 7.86366 127.526 5.3775 125.059 5.12752C124.527 5.07298 120.959 5.15934 120.682 5.29569C120.177 5.54113 118.814 8.26362 117.641 9.19082C112.987 12.886 106.401 10.6452 102.874 6.50468C102.665 6.25925 102.86 5.80474 102.592 5.6093C101.938 5.12752 99.9152 5.00026 99.1198 5.1548C97.6699 5.43659 97.4699 7.17735 96.8564 7.94092C95.1656 10.0362 92.4658 11.3406 89.7751 11.4952C84.6937 11.7906 81.6258 9.14991 79.4442 4.82755L76.5399 5.11843C76.099 6.06835 75.6036 7.00464 74.9537 7.83639C73.2356 10.0407 71.5449 11.2316 68.6224 11.4815C64.8409 11.8042 61.3366 9.25899 59.1323 6.49559C58.8959 6.20016 58.9096 5.70475 58.755 5.53204V5.52749Z" fill="#DF6C25"/>
<path d="M254.016 230.031C254.343 161.433 253.961 93.4883 253.711 24.6123L253.684 16.9448L18.2312 16.5767C17.7448 17.1448 17.5812 17.8447 17.5039 18.5674C16.9722 23.3715 17.9766 29.112 17.513 33.9616C17.4449 34.6933 16.8949 35.3296 16.9085 35.7659C16.9222 36.1659 17.4767 36.6659 17.5358 37.5612C17.7403 40.7292 17.1676 44.8652 17.1812 48.1331C17.4176 104.819 17.1722 161.787 17.1949 218.873C17.1949 229.336 17.1949 240.121 17.3994 250.62C17.4449 253.029 15.9723 256.111 19.4901 256.456C25.0124 257.002 32.1527 256.42 37.884 256.438C91.3204 256.629 143.889 256.261 196.875 256.438H230.036C237.099 255.793 245.83 257.343 252.689 256.465C253.129 256.411 253.461 256.384 253.766 256.016C253.861 255.897 254.025 253.398 254.043 252.993C254.411 245.548 253.984 237.553 254.02 230.036L254.016 230.031ZM249.748 251.457C249.721 251.666 249.693 251.779 249.662 251.779C249.63 251.779 249.602 251.67 249.575 251.47C247.916 251.593 246.253 251.652 244.589 251.643C239.54 251.775 234.49 251.857 229.441 251.879C212.174 252.066 194.898 252.093 177.631 252.093C177.504 252.093 177.377 252.093 177.25 252.093C177.086 252.093 176.922 252.093 176.759 252.093C176.709 252.093 176.659 252.093 176.604 252.093C176.54 252.093 176.472 252.093 176.409 252.093C176.186 252.093 175.968 252.093 175.745 252.093C175.172 252.093 174.604 252.093 174.032 252.093C170.073 252.093 166.114 252.089 162.155 252.079C161.642 252.079 161.133 252.079 160.619 252.079C160.419 252.079 160.224 252.079 160.028 252.079C159.437 252.148 158.842 252.184 158.242 252.152C157.878 252.134 157.528 252.107 157.188 252.075C156.919 252.075 156.651 252.075 156.383 252.075C155.72 252.075 155.051 252.07 154.388 252.066C152.679 252.061 150.965 252.052 149.256 252.048C148.097 252.043 146.938 252.039 145.779 252.034C144.893 252.034 144.011 252.025 143.125 252.02C142.071 252.016 141.021 252.007 139.966 251.998C139.225 251.993 138.48 251.989 137.739 251.984C136.276 251.975 134.812 251.966 133.349 251.957C132.762 251.957 132.176 251.952 131.59 251.943C121.259 251.993 110.928 252.002 100.601 252.002C99.9106 252.002 99.2198 252.002 98.5289 252.002C97.6426 252.002 96.7563 252.002 95.87 252.002C78.5988 252.002 61.3275 251.957 44.0608 251.789C37.7795 251.748 31.4982 251.639 25.2169 251.466C25.1578 251.466 25.1033 251.457 25.0442 251.452C24.6988 251.443 24.3534 251.434 24.0034 251.425C23.5625 251.393 23.1217 251.361 22.6762 251.325C22.6353 251.811 22.5899 252.075 22.549 252.075C22.5035 252.075 22.4581 251.807 22.4126 251.307C22.0717 251.28 21.7263 251.257 21.3854 251.23C21.7218 251.198 22.0627 251.17 22.399 251.148C22.3035 249.939 22.2217 247.589 22.149 244.335C21.4763 217.673 21.5672 118.282 22.349 105.678L22.3263 21.4353L22.8626 21.6535L23.0989 21.1399C36.8659 21.4035 50.6193 21.3626 64.4227 21.4262C76.8262 21.4853 89.3842 21.7126 101.838 21.7489C111.664 21.7808 121.418 21.7535 131.408 21.7444C161.655 21.708 192.439 21.2763 222.791 21.149C229.468 21.1217 236.181 21.399 242.749 20.9308C243.58 20.8718 245.121 21.7762 245.226 21.699C245.285 21.658 245.244 21.299 245.344 21.2354C245.689 21.0217 249.18 21.0717 249.198 21.2944C249.257 29.5347 249.116 37.793 249.18 46.0378C249.33 65.6907 249.534 85.4981 249.612 105.342C249.625 105.283 249.643 105.246 249.657 105.246C250.734 105.246 250.734 241.999 249.762 251.284L250.893 251.37C250.507 251.407 250.125 251.439 249.739 251.466L249.748 251.457Z" fill="#DF6C25"/>
<path d="M264.188 246.33C259.697 242.853 258.747 237.49 261.547 232.55C261.774 232.154 262.483 230.859 262.679 230.663C263.974 229.363 266.206 229.709 266.115 227.141C266.019 224.518 264.406 225.173 263.351 224.087C263.142 223.868 261.72 222.164 261.506 221.86C259.22 218.637 259.788 212.01 262.474 209.183C264.242 207.324 266.501 208.17 266.006 204.688C265.797 203.225 262.66 201.829 261.629 200.316C259.665 197.439 259.72 192.739 261.252 189.703C262.17 187.885 263.947 185.985 265.951 185.504C265.997 184.681 266.074 183.799 265.987 182.972C265.806 181.181 264.947 181.717 263.733 180.704C261.406 178.759 260.22 177.013 260.124 173.923C260.043 171.255 260.629 167.387 262.701 165.505C264.556 163.824 266.965 164.187 265.997 160.415C265.238 159.933 264.329 159.656 263.597 159.119C259.502 156.106 259.593 148.893 262.66 145.252C263.22 144.589 265.733 142.612 265.837 142.398C266.083 141.894 266.083 139.844 266.001 139.212C265.774 137.458 264.624 137.88 263.788 137.276C259.07 133.862 259.12 127.922 262.12 123.291C262.374 122.895 262.874 122.154 263.201 121.873C264.988 120.336 266.556 121.382 265.969 117.823C265.697 116.168 263.856 115.941 262.824 114.937C258.993 111.223 259.697 104.501 263.156 100.792C264.242 99.6244 266.265 98.9972 266.319 97.2973C266.387 95.0975 265.047 95.6202 263.801 94.7203C258.984 91.2297 259.015 83.1485 263.26 79.1807C264.006 78.4853 265.715 77.9081 266.074 77.149L266.306 73.7811C258.338 71.4359 257.834 58.1734 265.942 55.769C266.774 52.1102 263.642 51.5967 261.906 49.4832C259.12 46.0926 259.647 39.1659 262.656 36.0389C264.429 34.1981 266.465 35.0117 266.001 31.5074C265.819 30.1394 265.119 30.6348 264.192 29.9985C260.261 27.2896 259.315 23.8763 260.388 19.2903C261.233 15.6724 263.374 14.9816 265.928 12.7636L265.71 5.25057C265.374 4.8097 262.061 4.78243 261.292 4.81424C260.156 4.85969 256.888 5.07331 256.302 5.8687C256.061 6.19594 256.334 6.63681 256.166 6.91406C253.384 11.4682 246.921 13.2544 242.189 10.6683C240.285 9.62747 238.158 4.9915 236.863 4.83697C236.635 4.8097 234.699 4.99604 234.527 5.10513C234.081 5.37783 233.627 6.71408 233.231 7.21858C228.945 12.7181 221.755 13.0408 217.119 7.69582C216.319 6.77317 215.778 4.85969 214.551 4.79152C212.401 4.67334 212.197 6.95951 210.969 8.33667C208.042 11.6273 201.17 12.55 197.657 9.64111C197.275 9.3275 195.389 7.44129 195.18 7.14586C194.516 6.20503 195.116 4.85515 193.235 4.9915C189.63 5.25511 191.28 8.22759 189.039 9.79109C184.803 12.7454 178.313 12.3954 175.168 7.99579C174.532 7.1095 174.145 5.04149 172.873 4.90969C172.568 4.87787 169.591 5.19148 169.446 5.28238C168.278 6.02323 167.75 8.1685 166.719 9.19569C164.364 11.5409 159.292 12.0682 156.224 11.2546C153.847 10.6228 153.12 9.85927 151.693 7.94125C151.197 7.27767 150.679 5.84597 150.352 5.50964C149.584 4.71879 146.389 4.82333 145.516 5.41419C144.87 5.85052 143.293 8.8139 142.493 9.55475C139.266 12.5454 132.59 12.2818 129.413 9.24114C127.949 7.84126 127.399 5.3551 124.931 5.10513C124.399 5.05058 120.832 5.13694 120.554 5.27329C120.05 5.51873 118.686 8.24122 117.514 9.16842C112.86 12.8636 106.274 10.6228 102.747 6.48228C102.538 6.23685 102.733 5.78234 102.465 5.5869C101.81 5.10513 99.7879 4.97786 98.9925 5.1324C97.5426 5.41419 97.3426 7.15495 96.7291 7.91852C95.0383 10.0138 92.3385 11.3182 89.6478 11.4728C84.5665 11.7682 81.4985 9.12751 79.3169 4.80515L76.4126 5.09604C75.9717 6.04596 75.4763 6.98224 74.8264 7.81399C73.1083 10.0183 71.4176 11.2092 68.4951 11.4591C64.7136 11.7818 61.2093 9.23659 59.005 6.47319C58.7686 6.17776 58.7823 5.68235 58.6277 5.50964C57.996 4.79606 54.5417 5.20512 53.4782 5.1733C51.6101 8.44121 50.2466 10.7319 46.1697 10.9728C42.9018 11.1682 39.2066 10.6774 36.9977 7.9867C35.8706 6.61409 36.1705 5.01877 34.0844 4.84151C33.5344 4.79606 31.6618 5.03695 31.2619 5.28238C30.6846 5.64144 30.4438 7.33676 29.8347 7.85489C26.8577 10.4001 22.7671 11.6091 18.9493 10.3456C17.4994 9.86381 17.2267 8.97298 16.4858 8.6321C16.1904 8.49575 15.7132 8.74573 15.1678 8.42303C14.027 7.75945 13.4361 5.29147 12.968 5.14603C11.8499 5.11422 10.45 5.40965 9.39099 5.42783C8.54561 5.44146 7.8184 4.97786 6.70031 5.14149C4.42777 5.48237 5.65949 6.92315 5.64585 8.29122C5.63222 9.68656 5.08681 11.3182 5.3686 12.7727C5.56404 13.3772 7.55933 13.8317 8.31835 14.3498C12.1362 16.9359 12.1817 24.4489 9.24555 27.8259C8.51379 28.6668 5.8322 29.9894 5.47314 30.7757C5.05499 31.6938 5.45496 33.1846 5.30043 34.2027C11.6953 36.2434 12.9225 42.9065 9.90458 48.4787C8.47743 51.1149 4.89592 51.0331 5.03681 54.1283C5.13226 56.1963 6.7094 56.2372 7.74113 57.1553C12.0726 60.9913 13.2861 67.4635 8.65014 71.6677C7.5366 72.6767 5.3277 72.8312 5.30043 74.6538C5.29134 75.3856 5.75493 76.2809 5.45041 77.2309C10.7318 79.9897 12.4725 85.971 10 91.416C8.49561 94.7248 4.40959 94.0749 5.39587 98.7427C5.64585 99.938 6.67758 99.5517 7.74568 100.302C12.3226 103.515 12.2998 111.364 8.17746 114.937C6.55032 116.346 4.73684 116.205 5.1368 118.964C5.46405 121.218 6.34579 120.632 7.83203 121.636C12.3816 124.709 12.1362 131.708 9.19101 135.871C8.182 137.299 6.18217 137.694 5.62313 138.321C5.22771 138.762 5.15044 141.625 5.39133 142.034C5.48223 142.189 7.85476 143.389 8.40926 143.907C12.3862 147.607 11.4863 154.088 8.22745 157.792C8.12746 157.906 8.33653 158.288 8.28199 158.338C8.01838 158.574 6.32761 158.978 5.81857 159.328C4.65957 160.133 5.08226 162.069 5.41405 163.292C5.76402 164.578 6.51851 164.069 7.51388 164.733C11.7135 167.514 12.4862 175.177 9.14101 178.8C7.24572 180.849 4.72775 180.072 4.88683 183.885C4.97318 186.003 6.94574 185.981 8.31381 187.226C10.7136 189.412 11.0908 192.498 10.7227 195.612C10.5363 197.203 9.0092 201.02 7.75931 201.993C5.7822 203.529 4.35505 202.543 5.03227 206.197C5.28679 207.565 6.50487 207.338 7.29571 207.856C8.40016 208.579 10.4682 211.719 10.8363 213.001C11.8317 216.469 10.3955 221.61 7.88203 224.178C7.7684 224.296 5.35042 224.8 5.01409 225.582C5.10044 226.609 4.75047 228.268 5.34588 229.118C5.65494 229.559 8.05019 230.55 8.94103 231.554C11.5863 234.531 11.7317 240.644 9.55007 243.844C8.47743 245.417 4.85956 246.753 4.73684 248.171C4.5005 250.793 6.75485 250.934 8.34562 252.366C11.7953 255.475 11.7726 261.12 8.95466 264.66C8.00929 265.851 4.75956 266.869 5.005 268.328L5.6004 268.642L5.3277 269.41C6.27307 269.174 7.37752 269.669 8.19109 269.651C10.1546 269.61 10.0546 269.078 12.1998 269.651C13.8361 270.087 14.5269 267.528 15.2814 266.542C18.6175 262.211 26.8986 262.392 30.0665 266.842C31.3437 268.642 30.5392 270.228 33.8207 269.692C35.7024 269.383 35.6842 267.865 36.4614 266.601C39.0703 262.37 47.3651 261.693 50.8966 265.024C52.1465 266.201 52.7828 267.801 53.5963 269.265C53.7736 269.369 57.396 269.778 57.6642 269.728C58.6777 269.546 58.3914 268.369 58.8004 267.528C61.782 261.406 72.0766 260.988 75.449 267.019C76.4944 268.887 75.6036 269.928 78.4806 269.724C80.894 269.551 80.3804 268.356 81.4076 266.906C82.0303 266.029 82.6621 265.165 83.4938 264.465C87.0572 261.47 93.4021 262.133 96.4336 265.651C97.1608 266.497 98.0335 268.878 98.3744 269.142C98.6971 269.392 101.22 269.628 101.783 269.624C103.21 269.619 104.392 265.915 105.524 264.77C107.569 262.702 113.364 262.152 116.023 263.261C118.75 264.401 120.195 267.274 121.613 269.637L126.704 269.133C127.69 268.219 127.926 266.688 128.717 265.724C129.917 264.265 133.026 262.733 134.903 262.642C140.139 262.388 143.243 264.974 145.075 269.651C146.552 269.533 149.125 270.196 150.429 269.551C151.302 269.119 151.384 267.915 151.947 267.151C155.697 262.056 163.873 260.956 167.769 266.419C168.541 267.501 168.768 269.583 170.186 269.742C170.496 269.778 172.95 269.624 173.073 269.546C173.995 268.96 174.582 266.669 175.359 265.829C177.663 263.329 182.004 262.129 185.299 263.07C188.117 263.874 190.385 267.01 191.048 269.742L195.098 269.578C196.134 266.983 197.343 264.47 200.216 263.533C205.747 261.733 210.492 263.879 212.583 269.283C213.587 269.183 216.069 269.615 216.66 269.119C217.242 268.633 218.11 266.501 218.928 265.656C220.941 263.579 224.073 262.661 226.918 262.761C230.018 262.87 232.168 265.288 233.827 267.647C234.517 268.628 233.913 269.319 235.74 269.651C236.222 269.737 238.635 269.76 238.849 269.565C239.272 269.178 239.353 268.024 239.685 267.406C242.458 262.256 250.412 261.906 254.384 265.788C254.684 266.079 255.988 267.651 256.234 268.01C256.511 268.419 256.352 269.542 257.229 269.855L265.001 269.642C267.419 266.733 265.483 266.856 263.729 265.497C259.102 261.924 259.67 254.634 264.174 251.162C264.838 250.653 265.897 250.453 265.956 250.38C266.024 250.293 266.219 248.43 266.201 248.189C266.078 246.589 265.006 246.962 264.192 246.33H264.188ZM253.934 252.989C253.916 253.393 253.752 255.893 253.657 256.011C253.348 256.379 253.016 256.407 252.58 256.461C245.721 257.338 236.99 255.788 229.927 256.434H196.766C143.78 256.261 91.2113 256.625 37.775 256.434C32.0391 256.416 24.9033 256.993 19.3811 256.452C15.8632 256.107 17.3358 253.021 17.2903 250.616C17.0903 240.117 17.0903 229.332 17.0858 218.869C17.0631 161.787 17.3085 104.815 17.0722 48.1288C17.0585 44.8654 17.6312 40.7248 17.4267 37.5569C17.3676 36.6616 16.8131 36.1616 16.7995 35.7616C16.7858 35.3253 17.3312 34.6935 17.4039 33.9618C17.8675 29.1076 16.8631 23.3718 17.3949 18.5676C17.4767 17.845 17.6357 17.145 18.1221 16.5769L253.575 16.945L253.602 24.6126C253.852 93.4886 254.234 161.437 253.907 230.032C253.87 237.554 254.302 245.544 253.929 252.989H253.934Z" fill="#DF6C25"/>
<path d="M156.392 84.0618C161.155 86.2752 164.287 90.6158 167.405 94.6518C170.227 98.306 172.205 100.583 173.918 104.955C174.309 105.946 178.259 110.11 179.136 110.15C182.304 109.128 185.481 108.101 188.558 106.828C190.512 106.019 195.775 103.969 196.612 102.124C197.166 100.901 197.248 98.8423 197.716 97.4288C198.975 93.5973 201.693 90.8521 205.138 88.9023C208.133 87.207 211.888 85.3889 214.496 88.7432C214.869 89.225 215.205 90.2703 215.324 90.3794C215.51 90.5567 216.755 90.8385 217.378 91.3748C219.264 92.9974 217.946 94.0564 218.26 95.7744C218.405 96.5744 218.982 97.0061 218.896 98.0106C218.737 99.7968 217.455 100.124 217.119 101.174C216.678 102.565 217.205 103.81 215.846 105.119C214.596 106.319 213.165 105.86 212.683 106.16C212.574 106.228 212.038 108.001 211.724 108.532C210.565 110.478 207.992 112.409 205.847 113.096C204.756 113.446 203.029 113.45 202.216 113.814C200.784 114.455 195.534 119.422 193.548 120.804C189.88 123.358 182.39 128.163 178 127.863C171.977 127.454 164.805 118.895 159.856 115.264C159.351 114.891 158.783 114.986 158.569 114.236L151.756 120.763C146.848 126.626 142.089 132.776 140.562 140.493C141.207 141.793 142.734 142.216 143.702 142.957C147.152 145.593 150.602 148.302 154.092 150.897C159.76 155.106 171.45 162.051 173.636 168.759C176.754 178.322 179.708 187.221 183.508 196.589C185.89 202.465 188.217 208.397 191.476 213.869C192.48 213.892 193.103 213.355 194.221 213.405C197.066 213.533 198.934 214.978 202.611 214.542C208.356 213.864 211.551 207.47 217.669 211.146C219.578 212.292 220.537 214.069 220.06 216.328C219.741 217.841 218.587 218.759 218.16 220.164C215.61 223.136 213.051 226.377 210.006 228.881C204.988 233.004 198.307 234.026 193.221 238.058C198.071 238.19 203.029 238.108 207.856 238.431C210.597 238.612 214.196 238.821 216.851 239.226C222.491 240.094 218.087 241.608 215.11 241.826C202.47 242.757 188.712 241.608 175.982 241.239C144.721 240.339 113.541 239.64 82.3213 238.349C69.7541 237.831 55.8326 237.894 43.47 236.003C42.4292 235.844 39.534 235.444 40.5248 233.99C40.7066 233.722 41.4293 233.581 41.7792 233.508C45.2562 232.813 54.4463 233.263 58.5187 233.295C72.9539 233.408 87.6435 234.413 102.329 234.804C118.968 235.249 135.771 235.308 152.461 235.749C162.374 236.008 172.291 236.599 182.199 236.894C180.554 233.226 179.431 229.377 178.754 225.409C178.563 224.295 178.799 222.586 178.504 221.618C175.586 212.001 163.81 202.588 159.433 192.53C157.515 188.126 157.038 183.749 155.642 179.208C154.947 178.249 149.647 175.922 148.229 175.313C144.302 173.618 139.58 171.768 135.558 170.295C133.908 169.691 129.845 168.1 128.376 167.891C127.877 167.818 127.331 167.768 126.954 168.177C123.872 173.622 119.791 178.367 115.955 183.276C113.21 186.789 106.942 195.984 103.006 197.584C100.983 198.407 96.7837 197.475 94.5066 197.493C86.1846 197.552 75.44 198.179 67.2543 199.243C64.9364 199.543 62.6866 200.234 60.4004 200.656C61.5412 203.065 59.0323 203.711 57.6143 205.12C55.6917 207.029 52.8465 210.228 51.4375 212.483C49.5286 215.542 48.7241 220.259 44.7653 221.35C38.8567 222.982 37.166 214.583 37.1796 210.36C37.2023 204.393 39.0613 201.747 40.8157 196.58C42.1974 192.503 43.0428 187.021 45.7743 183.562C47.4242 181.472 49.4013 181.599 51.8102 182.126C54.719 182.763 56.7052 184.044 59.1778 184.908C62.8547 186.189 69.9996 182.249 73.672 181.017C79.9578 178.908 86.0891 177.695 92.7158 178.622L93.5203 177.958C94.3157 175.518 95.2111 173.1 96.1292 170.704C96.7337 169.123 98.5744 165.773 98.829 164.423C98.9153 163.964 98.429 163.56 98.3835 163.073C98.2017 161.287 102.788 154.929 103.238 152.62C99.2062 144.698 100.929 136.435 105.978 129.517C110.583 123.204 115.055 120.377 117.605 112.437C118.059 111.023 120.418 101.76 119.841 101.188C117.682 101.292 115.537 101.469 113.573 102.356C112.596 101.583 112.414 101.174 110.996 101.165C108.614 101.147 103.901 101.719 101.442 102.088C101.133 102.133 100.706 102.206 100.483 102.424C98.179 106.092 95.1656 109.369 92.1432 112.496C90.8569 115.123 86.93 117.936 85.6619 120.222C84.3938 122.509 85.9028 127.385 85.1347 130.426C84.5756 132.653 80.8487 137.916 78.7307 138.807C75.0537 140.352 74.7583 135.703 74.1674 135.703C73.2175 136.23 73.0175 137.366 72.4403 138.03C71.6313 138.957 68.8633 141.598 67.7725 141.766C65.4545 142.125 63.7092 140.502 62.4729 138.694C61.4867 137.248 59.0732 132.571 59.0596 130.962C58.9732 123.172 69.3769 117.264 75.0128 113.627C79.3851 106.455 83.2212 97.7515 88.8252 91.4839C91.5023 88.4887 95.911 87.1615 99.6834 85.8116C107.551 83.0028 115.841 81.1029 123.613 78.135L117.396 78.2441C114.814 77.8305 111.81 77.6896 109.992 75.5216C109.787 75.0171 110.464 74.958 110.792 74.8853C112.791 74.4353 115.382 73.9808 117.423 73.6808C117.632 73.649 120.382 73.8263 119.559 73.0672C116.632 72.3037 114.923 71.4583 111.887 72.4991C111.182 72.74 110.673 73.2763 109.987 73.499C108.051 74.1308 105.133 74.558 103.156 74.0808C101.824 73.7581 98.0972 71.6083 99.1107 69.8721C99.7971 69.4903 100.706 70.2311 101.483 70.3402C108.124 71.2492 110.614 66.3087 116.518 65.527C123.636 64.5861 129.445 69.8039 136.385 64.2225C140.235 61.1274 140.562 55.6778 146.42 55.1233C149.034 54.8733 151.006 55.9914 153.661 55.4278C156.965 54.7233 161.519 52.3826 163.642 49.7192C164.801 48.2648 165.346 45.6741 167.609 45.6059C168.396 45.5832 168.937 46.415 169.441 45.6559C163.573 39.2701 153.942 37.2203 146.052 41.1154C141.189 43.5152 136.976 48.5057 131.758 49.7329C125.568 51.1873 121 46.6377 114.482 48.6966C108.978 50.4328 107.183 57.9458 100.288 57.7095C98.888 57.6595 92.9431 55.2051 94.9884 53.4144C95.6974 52.7962 98.5972 54.028 99.7016 54.1416C104.183 54.5915 106.306 49.7419 109.433 47.424C111.791 45.6741 115.587 44.306 118.541 44.3469C124.445 44.4288 127.708 48.333 133.749 45.0605C140.016 41.6654 143.671 36.4113 151.674 35.4386C158.21 34.6432 172.568 38.9701 173.223 46.8104C173.345 48.2875 172.841 49.642 172.905 50.8737C172.945 51.61 173.382 52.2372 173.468 52.9553C173.795 55.7414 173.1 58.9412 173.518 61.3046C174.05 64.3044 179.318 67.4541 174.082 69.7312C173.336 70.0584 172.655 69.6266 172.082 70.6311C171.509 71.6355 171.859 73.1309 171.536 73.849C171.186 74.6353 170.405 74.6989 170.073 75.2898C169.714 75.9261 169.673 77.2078 169.368 78.0668C168.346 80.9257 166.051 82.5937 162.951 82.3028C160.006 82.0301 157.61 79.3758 156.401 84.0663L156.392 84.0618ZM153.774 90.5976C153.952 89.3159 153.642 87.716 153.774 86.3934L151.447 89.1522L149.693 88.8159C149.561 88.1705 150.511 86.0525 150.825 85.3298C151.406 84.0027 154.015 80.1803 154.07 79.2622C154.133 78.1395 151.038 76.5079 152.297 74.6262C153.679 73.5081 153.615 74.5898 154.242 75.0398C155.91 76.2397 161.569 78.7759 163.501 78.8531C166.301 78.9668 166.523 77.376 166.76 74.9671C165.537 73.6763 163.396 73.3581 164.551 71.0629C166.132 70.6538 167.178 71.4447 168.564 71.8901L169.287 67.8268L172.341 66.8087C172.432 66.2315 170.473 63.3681 170.159 62.3182C169.4 59.7547 170.314 58.6503 170.418 56.2687C170.518 53.9825 170.064 51.2782 168.087 49.8738C167.423 49.7601 164.892 53.1462 164.214 53.7689C163.773 54.1734 161.642 55.9096 161.242 56.1278C160.092 56.7686 157.065 57.2186 156.101 57.8367C155.233 58.3958 154.983 60.2592 153.493 60.7365C150.925 61.5682 150.82 58.2685 148.375 57.9731C143.68 57.4049 143.284 66.736 148.466 68.0495C149.456 68.2995 151.043 67.6859 150.534 69.6448C149.961 71.8492 146.752 70.3629 145.93 70.8674C145.552 71.0992 144.821 73.1218 144.434 73.7217C143.098 75.7761 141.38 77.3169 139.885 79.2304C142.603 83.1755 143.643 88.5114 147.538 91.602C149.779 93.3792 153.193 94.6654 153.765 90.5976H153.774ZM130.14 71.0265C128.799 71.1492 127.177 71.0265 125.79 71.0265C125.627 71.0265 124.522 70.2584 124.486 71.0265C125.69 71.5901 126.581 72.6173 127.958 72.9173C130.954 73.5672 135.221 71.9037 137.535 70.0175C137.939 69.6903 138.776 68.9494 138.835 68.4176C136.203 69.4903 132.976 70.7674 130.14 71.0311V71.0265ZM157.251 89.2977C156.506 100.36 146.407 97.8152 141.821 90.6612C140.153 88.0569 138.362 81.7029 135.558 80.6848C133.999 80.1167 130.463 80.0712 128.772 80.3939L112.591 85.2389C113.073 87.2342 114.082 88.9204 114.541 90.9703C115.037 93.1746 115.009 95.5017 115.496 97.7061L131.44 95.0927C132.035 98.1197 129.245 99.2014 126.799 99.7377C127.926 100.938 129.39 102.047 129.699 103.792L123.913 102.933C122.409 109.619 121.123 116.636 116.977 122.259C116.877 122.518 116.923 122.713 117.073 122.94C117.318 123.318 122.931 126.267 123.8 126.658C127.804 128.472 134.78 130.781 139.144 130.194C140.621 129.994 140.83 128.285 141.607 127.208C144.489 123.222 147.625 119.232 150.879 115.536C151.997 114.264 153.865 112.973 154.938 111.473C158.047 107.123 157.292 101.219 158.419 96.2471C161.037 96.7789 161.065 101.974 161.042 104.228C161.028 105.714 159.978 109.905 161.315 110.623C161.742 110.855 161.751 110.655 162.046 110.469C163.296 109.682 169.237 104.324 169.391 103.301C169.123 102.56 168.555 101.86 168.1 101.21C165.746 97.8333 161.26 91.7929 157.983 89.5795C157.742 89.4159 157.706 89.1659 157.26 89.2932L157.251 89.2977ZM109.401 86.3934C104.733 88.2841 96.0065 89.6386 92.284 92.911C88.5071 96.2289 81.9486 108.273 79.1852 113.159C78.8306 113.791 78.8216 114.564 78.3807 115.255C76.9035 117.541 72.4994 119.304 70.1905 120.918C67.1998 123.008 63.2411 126.735 62.7184 130.476C63.8274 130.017 64.291 128.913 65.1863 128.163C65.8999 127.567 69.6769 124.954 69.3951 127.417C69.2269 128.867 63.0865 132.494 63.8774 135.112C64.4 135.221 64.5773 134.83 64.8955 134.539C66.6908 132.926 67.9861 130.362 70.2677 128.894C71.7903 127.913 72.7721 128.685 72.1221 130.462C71.3904 132.462 67.6998 134.757 66.718 137.53C66.3272 138.63 67.4361 138.294 68.0406 137.971C69.8359 137.012 71.8449 132.835 73.6129 131.362C74.3038 130.785 77.3808 129.072 78.1898 129.344C79.7397 131.153 76.7172 133.139 77.508 135.403C78.0398 135.517 78.208 135.117 78.5261 134.83C80.7078 132.821 82.0667 129.549 82.1622 126.576C82.2804 122.872 80.7441 120.972 83.3166 117.577C87.2254 112.423 91.9023 107.723 96.061 102.774C97.3291 101.26 97.6563 99.5286 99.7334 98.8878C101.924 98.2151 105.942 98.3106 108.36 97.9606C108.828 97.8924 111.001 97.5515 111.11 97.3788C111.31 93.6519 110.383 89.9658 109.405 86.3979L109.401 86.3934ZM204.306 97.6288C204.125 97.4788 204.075 97.1607 204.016 96.9334C204.761 93.461 209.67 93.3837 211.597 91.8747C212.419 91.2293 212.301 89.7477 211.115 89.9249C210.61 90.0022 207.256 91.5066 206.638 91.852C203.379 93.6973 201.529 96.6971 200.475 100.188C200.12 101.365 200.057 103.056 199.68 104.024C199.557 104.337 199.18 104.356 199.016 104.592C198.793 104.91 198.748 105.392 198.448 105.701C197.657 106.505 193.007 108.905 191.757 109.451C187.376 111.359 182.595 112.382 178.322 114.496C177.877 114.414 172.35 108.773 171.877 108.169C171.614 107.832 171.418 106.946 171.318 106.992C170.009 108.164 168.85 109.587 167.55 110.75C166.323 111.855 163.124 112.95 164.937 114.818C166.7 116.636 173.236 122.199 175.318 123.286C179.145 125.286 182.176 123.277 185.467 121.431C187.971 120.027 190.544 118.336 192.894 116.677C194.548 115.509 199.789 110.764 201.052 110.337C202.766 109.755 204.188 110.487 206.361 109.269C208.824 107.887 209.433 105.405 209.76 102.806C209.815 102.374 210.197 102.151 209.588 101.774L206.697 106.414C206.324 106.873 204.17 107.519 204.215 106.551C204.27 105.492 205.179 104.492 205.524 103.506C205.87 102.519 205.947 101.065 206.324 100.238C206.815 99.1605 209.438 98.3833 208.865 96.2653C208.411 95.7653 205.938 98.9969 204.302 97.6424L204.306 97.6288ZM214.592 94.0064C213.787 93.3201 210.62 94.3927 211.501 95.6517C211.992 96.3516 214.224 95.1654 214.96 95.0927C215.055 94.9563 214.756 94.1473 214.592 94.0109V94.0064ZM214.574 97.747C214.01 97.797 211.515 99.2878 212.778 100.015C213.619 99.9741 216.21 97.6061 214.574 97.747ZM138.598 143.902C136.558 141.434 132.822 139.43 129.717 138.725C129.076 138.58 126.836 137.994 126.518 138.739C130.735 140.443 134.844 142.307 138.557 144.97C139.416 145.093 138.821 144.17 138.603 143.907L138.598 143.902ZM186.649 213.305C181.354 203.174 176.154 188.812 172.323 177.89C170.546 172.827 171.023 169.082 166.823 165.119C160.365 159.028 151.893 154.206 144.766 148.884C144.466 148.674 144.171 148.72 143.839 148.784C141.644 149.211 137.648 153.983 136.417 155.888C135.708 156.987 132.167 163.891 132.635 164.65L154.988 174.34C160.81 177.395 159.497 179.308 160.978 184.881C165.005 200.007 177.372 207.551 182.381 222.341C182.499 222.691 182.631 223.027 182.895 223.3C185.303 223.409 187.194 223.132 188.28 220.805C189.958 217.21 188.73 216.664 187.103 213.624C187.017 213.464 186.703 213.41 186.644 213.301L186.649 213.305ZM112.787 156.378C116.059 159.296 120.332 162.26 124.686 163.478C125.127 163.601 125.145 164.091 125.64 163.387C120.941 159.996 116.064 156.865 111.114 153.851C110.937 153.742 109.769 153.033 109.992 153.815C110.751 154.96 111.905 155.588 112.791 156.383L112.787 156.378ZM117.523 174.263C112.182 172.859 107.065 170.409 102.32 167.596C99.8698 169.591 96.8973 181.904 94.8975 182.813C93.8839 183.272 92.1432 182.294 90.9569 182.117C80.5623 180.585 74.3174 185.949 65.3727 188.371C63.9137 188.767 59.255 188.689 58.7323 188.976C56.5734 190.157 55.5053 195.284 57.3325 197.193C57.4915 197.379 57.7052 197.375 57.9233 197.42C58.5005 197.548 64.0955 195.939 65.5 195.743C72.8357 194.721 82.0713 194.225 89.5252 193.962C92.8249 193.848 97.2836 194.484 100.261 194.189C102.565 193.962 104.433 191.744 105.915 190.053C109.146 186.367 113.782 180.34 116.482 176.263C116.691 175.945 117.664 174.454 117.523 174.263ZM49.5149 185.685C48.5377 185.73 47.5833 187.648 47.206 188.471C45.2926 197.089 39.1613 205.879 41.3883 214.869C41.5111 215.36 42.2156 217.628 42.5701 217.746C43.3382 217.996 43.5518 217.355 43.6018 216.741C43.7518 214.969 42.7519 211.851 42.8155 209.733C42.9246 206.051 47.0288 194.289 48.5696 190.416C48.9286 189.512 50.7648 186.767 50.7966 186.549C50.8785 185.985 49.9285 185.667 49.5104 185.685H49.5149ZM55.7553 202.393L52.2783 200.652C52.3147 202.12 55.3554 204.256 55.7553 202.393ZM52.8556 206.447C53.0555 205.474 50.5103 203.37 50.2467 204.57C50.0149 205.624 51.9465 206.701 52.8556 206.447ZM214.569 219.109C215.324 218.16 217.278 215.582 216.001 214.542C214.492 213.31 213.946 215.787 213.347 216.582C207.692 224.054 197.389 230.208 188.562 233.267C187.535 233.622 186.453 233.981 185.381 233.708C185.472 234.445 186.09 236.222 186.967 236.194C189.817 236.108 194.994 232.499 197.743 231.136C200.079 229.977 202.938 229.154 205.188 227.85C207.815 226.332 212.651 221.527 214.565 219.105L214.569 219.109ZM194.444 217.828C194.003 218.287 192.198 222.005 193.353 222.096C195.107 221.637 195.462 219.914 196.066 218.423C196.098 217.719 194.944 217.305 194.448 217.828H194.444ZM199.589 218.046L198.611 218.082C197.816 218.332 198.007 221.2 198.575 221.232C199.816 220.791 199.557 219.182 199.589 218.046Z" fill="#DF6C25"/>
<path d="M146.507 225.604L146.389 226.759C146.175 227.09 145.07 227.281 144.639 227.327C136.276 228.172 125.89 227.472 117.396 227.318C107.087 227.127 96.82 227.14 86.6481 226.377C85.5209 226.29 80.1214 225.886 79.5351 225.445C77.7489 224.109 81.2486 223.623 82.0076 223.563C96.8654 222.35 114.028 223.059 128.99 223.841C131.122 223.95 145.952 224.922 146.511 225.609L146.507 225.604Z" fill="#DF6C25"/>
<path d="M139.562 57.4005L136.526 60.5957C129.999 66.6179 126.49 63.4 119.336 62.1138C112.005 60.7957 109.751 66.9088 102.869 66.977C99.6561 67.0088 97.2245 63.9863 93.3794 64.7135C92.2158 64.9362 91.3114 66.1452 89.8842 65.2498L89.4888 64.4681C89.3933 61.9138 94.2338 61.0911 96.1655 61.2775C98.0972 61.4638 100.256 62.7455 102.02 62.9C107.201 63.3636 109.437 58.3004 115.1 57.7232C121.954 57.0187 125.295 61.5456 133.699 59.214C135.758 58.6413 137.494 57.3323 139.566 57.4005H139.562Z" fill="#DF6C25"/>
<path d="M134.63 53.9147C134.389 58.2189 127.704 57.1599 124.768 56.3872C123.027 55.9282 121.204 54.8555 119.373 54.5328C116.518 54.0283 112.946 54.901 109.982 54.4965C111.337 52.6512 114.568 51.7194 116.786 51.5876C122.254 51.2649 126.404 54.151 131.622 54.4601C132.758 54.5283 133.721 54.7374 134.626 53.9193L134.63 53.9147Z" fill="currentColor"/>
<path d="M137.535 54.7814C137.489 54.3769 137.539 53.9997 137.666 53.6088C138.735 50.3227 150.765 44.5505 154.206 44.9005C155.729 45.055 155.26 45.5959 154.501 46.3776C153.37 47.5412 144.143 51.5363 141.916 52.6407C141.18 53.0043 137.998 55.2405 137.535 54.7769V54.7814Z" fill="currentColor"/>
<path d="M148.266 52.7506L151.361 51.6462C155.406 49.9145 158.301 47.5874 160.728 43.9014L161.46 44.0468C162.887 48.3374 158.81 51.9098 154.992 52.9551C152.474 53.646 150.684 53.896 148.266 52.7461V52.7506Z" fill="currentColor"/>
<path d="M144.375 111.791C144.984 111.441 146.557 109.955 146.82 111.487C147.398 114.868 139.58 118.114 136.739 116.914C133.594 115.587 139.18 114.441 140.103 114.05C141.639 113.391 142.948 112.619 144.375 111.791Z" fill="currentColor"/>
<path d="M168.491 55.7234C168.596 55.8325 168.818 56.7006 168.732 56.8278C167.759 57.8277 166.459 56.6278 166.032 57.6687C165.041 57.3732 162.046 59.3685 161.628 58.0823C160.901 55.8597 167.505 54.678 168.491 55.7234Z" fill="currentColor"/>
<path d="M149.388 65.1902L147.984 65.2083C148.179 64.113 145.734 59.727 148.266 60.4133C149.797 60.8314 149.943 63.9448 149.384 65.1902H149.388Z" fill="currentColor"/>
<path d="M166.464 60.3635C168.859 62.7906 163.169 65.1813 164.646 60.2908C164.987 59.7863 166.128 60.0227 166.464 60.3635Z" fill="currentColor"/>
</svg>
