<svg width="272" height="275" viewBox="0 0 272 275" fill="none" xmlns="http://www.w3.org/2000/svg">
<path d="M238.654 46.8094C247.589 55.0905 242.135 77.5931 238.004 87.715C235.949 92.7419 232.122 99.2049 229.5 104.209C228.077 106.922 224.323 111.922 223.541 114.367C222.609 117.29 224.555 122.48 222.855 127.562C221.001 133.098 211.379 142.997 206.061 145.21C204.393 145.906 202.211 145.992 200.561 146.928C199.589 147.483 193.253 153.514 193.344 154.032C200.734 160.559 210.161 170.108 211.515 180.366C211.933 183.539 209.247 187.425 215.201 186.579C224.182 185.307 217.674 170.313 225.123 167.604C231.409 165.318 230.941 172.335 232.313 173.708C232.704 174.099 234.236 173.899 235.24 174.962C237.286 177.13 237.976 180.294 239.172 182.13C239.59 182.775 240.653 182.898 241.217 183.971C241.467 184.448 243.544 190.556 243.571 190.979C243.799 194.42 237.286 199.646 234.59 201.505C228.332 205.819 217.828 211.014 210.242 211.595C201.352 212.282 196.23 205.95 194.966 197.715C180.695 202.124 180.131 180.271 170.882 174.426C170.255 174.539 166.232 178.644 165.251 179.389C150.711 190.42 136.917 202.542 120.904 211.705C116.241 214.372 111.405 216.631 106.647 219.113L128.581 218.827C139.98 215.713 150.847 218.877 162.465 218.268C166.478 218.059 169.414 217.836 173.559 217.749C184.622 217.518 197.507 217.913 208.574 218.845C211.756 219.113 220.86 220.677 221.091 224.717C221.373 229.671 208.92 227.24 205.902 227.376C203.166 227.499 200.261 228.671 197.498 228.849C192.135 229.199 186.69 227.649 181.363 227.167C169.391 226.09 157.751 228.308 145.839 228.294C115.75 228.262 85.3256 229.389 55.2918 228.249C51.7421 228.112 38.3705 228.849 36.4025 226.585C33.9345 223.749 36.9752 220.822 39.9567 220.181C47.397 218.586 56.2872 219.499 63.6047 218.277C64.2547 218.168 64.591 217.968 64.9773 217.436C56.3735 208.291 55.31 192.92 62.1912 182.434C60.5823 180.198 51.0649 179.035 51.0967 176.339C51.1285 173.385 58.9597 170.09 61.5185 169.526C67.3362 168.249 72.0086 170.394 73.8766 162.727C68.2316 159.873 61.1186 154.164 61.414 147.128C51.8693 144.206 48.2878 161.645 39.2068 160.45C32.3892 159.554 34.8208 154.918 33.7482 150.905C32.5573 146.455 29.6349 140.301 28.9122 135.743C28.7758 134.893 28.4122 130.38 28.4804 129.73C28.9895 125.025 38.5477 126.944 41.9293 126.603C50.8331 125.712 62.0276 115.399 69.5815 116.735C77.1354 118.072 75.2719 129.002 78.3126 130.78C79.2307 131.316 81.0987 130.925 82.6122 131.479C84.3893 132.134 85.8119 134.211 87.2436 135.179C89.648 136.802 92.2887 138.202 94.7157 139.806C105.506 129.343 115.596 118.199 126.359 107.704C127.967 106.136 134.221 101.514 134.449 99.6367C134.676 97.7505 133.922 95.9552 134.585 93.1509C136.076 86.8651 147.72 75.8933 154.197 74.9934C157.874 74.4843 159.128 75.8796 161.41 76.0524C163.219 76.1887 179.181 64.1761 182.467 62.1535C191.448 56.6404 201.943 51.7453 211.91 48.2683C218.796 45.8685 232.677 41.2507 238.672 46.8048L238.654 46.8094ZM236.067 49.3819C237.358 47.6002 230.559 46.573 229.682 46.573C214.724 46.5594 186.558 61.3036 174.232 70.0483C173.027 70.9028 166.073 76.0205 165.773 76.5978C165.028 78.0385 167.228 78.4112 168.046 79.3612C169.223 80.7383 170.582 83.7063 170.282 85.5334C169.773 88.6104 166.355 89.6648 164.378 91.3011C160.36 94.6326 160.86 93.8963 156.67 96.3734C154.093 97.896 150.593 101.827 147.098 102.909C142.921 104.205 138.335 101.191 135.103 102.586C134.153 102.996 126.745 110.168 125.227 111.595C117.264 119.067 108.837 128.062 101.338 136.038C98.2518 139.324 73.0267 166.177 74.9674 168.817C77.2581 169.349 83.4894 172.376 83.8621 174.689C84.612 179.389 75.8946 190.834 70.7996 190.543C67.2726 190.343 67.6589 184.125 63.8683 184.384C60.8959 192.252 58.0506 201.983 63.5911 209.382C67.0908 207.537 69.1906 204.255 71.8995 201.587C72.5176 200.978 73.9538 200.296 74.1766 199.937C74.881 198.819 72.4085 197.51 74.0266 195.651C75.3946 194.083 84.7529 190.693 87.1618 190.184C92.525 189.047 106.201 188.752 109.446 194.061C111.428 197.301 104.706 203.251 102.138 205.16C100.902 206.078 95.3429 209.205 94.1249 209.155C92.6023 209.091 90.3434 205.36 88.8617 204.092C86.5573 202.124 82.4668 199.742 79.3852 200.733C78.458 201.033 68.0498 211.155 67.1726 212.414C66 214.1 68.5316 215.018 69.9769 215.754C92.0978 226.999 126.954 203.405 144.348 190.152C161.415 177.148 180.772 161.213 194.935 145.187C195.507 144.537 196.643 144.256 197.193 143.56C199.884 140.179 195.862 137.32 196.08 134.129C196.171 132.775 197.48 132.02 197.716 130.743C198.03 129.066 197.362 127.457 198.152 125.625C198.793 124.144 200.661 123.83 200.979 122.898C201.529 121.294 200.557 118.944 201.357 117.163C202.02 115.681 204.166 115.626 204.993 114.685C207.856 111.436 204.816 106.572 213.524 107.759C220.023 108.645 218.496 113.136 223.387 105.304C231.918 91.6419 240.094 72.6617 237.745 56.3131C237.281 53.077 235.154 54.8405 233.277 56.3131C230.377 58.5811 225.85 63.2625 222.996 66.0305C191.417 96.637 159.083 126.584 126.64 156.327C122.259 160.345 117.396 163.4 113.314 167.999C108.101 173.871 105.401 176.626 99.4062 181.866C97.9746 183.121 95.4202 186.461 94.1703 187.184C92.6295 188.075 88.5844 188.279 86.6391 188.543C88.4753 186.725 97.57 179.275 97.7655 177.407C97.9473 175.671 94.9839 172.14 93.5795 171.044C92.0023 169.813 84.2212 166.622 84.4575 165.286C84.6711 164.072 90.1707 160.663 91.5115 160.082C98.4609 157.077 107.296 156.155 113.019 162.013C125.213 152.628 135.817 141.174 147.184 130.761C160.037 118.99 173.341 107.636 186.085 95.778C199.78 83.029 212.956 69.662 226.623 56.8767C229.413 54.2633 232.75 51.1681 236.072 49.3728L236.067 49.3819ZM145.021 87.7741C146.93 85.038 155.874 93.0373 159.042 90.9647L159.988 89.6648C159.742 86.956 152.115 84.7334 152.747 82.4518C153.484 79.7748 159.442 85.1425 160.674 85.6197C164.987 87.2878 167.16 84.588 163.569 81.0656C160.315 77.8704 156.956 76.7568 152.438 78.2522C145.102 80.6747 125.854 100.468 144.966 99.3867C145.084 96.6824 142.434 96.8551 140.78 95.5234L140.503 94.6781L141.398 93.3054C144.78 94.1963 147.934 96.5097 151.579 96.0007C154.229 91.5147 142.657 91.1738 145.025 87.7786L145.021 87.7741ZM203.366 137.084C200.093 131.434 197.157 132.307 200.979 138.643C201.902 140.17 202.407 142.038 204.425 141.383C205.115 141.16 211.406 136.034 212.174 135.211C217.901 129.116 221.46 120.83 215.251 113.808C213.415 111.727 207.747 109.2 208.37 113.413C208.992 117.626 215.61 121.439 214.951 126.044C212.833 128.225 208.365 115.117 204.361 117.953C200.943 120.376 209.697 129.448 208.283 131.043C205.743 130.93 204.506 126.521 202.711 125.748C200.716 124.889 199.571 127.348 200.361 129.221C200.916 130.539 208.029 135.847 204.67 137.152L203.357 137.079L203.366 137.084ZM44.22 153.078C48.8605 148.914 50.5149 142.66 58.1961 142.283C60.2096 142.183 62.5003 143.388 64.4183 142.442C64.8637 142.224 67.2271 138.924 68.2952 137.988C71.7904 134.929 75.7992 134.507 74.7129 128.798C73.8266 124.157 71.5086 118.481 65.9363 119.512C61.6685 120.303 53.6556 126.18 48.1697 127.862C46.3425 128.421 43.7609 129.198 41.9111 129.38C39.5477 129.607 32.0165 128.412 31.0893 130.78L34.4208 132.439L31.0938 135.216C31.0347 136.743 37.7751 136.652 35.7525 139.424L32.9755 140.474C31.8438 144.11 37.9933 142.656 38.2978 144.115C38.5159 145.946 34.6526 145.951 34.9708 147.433C35.2889 148.914 39.2068 149.173 40.5203 149.387L37.5887 152.878C37.4887 157.641 42.0475 155.018 44.2155 153.073L44.22 153.078ZM232.186 182.712L233.295 177.448L231.913 176.603C227.364 184.493 229.673 172.849 228.582 171.044L226.818 170.063C222.914 169.726 223.996 178.035 223.014 181.043C222.019 184.093 218.696 188.47 215.251 188.847C212.928 189.102 209.601 187.647 208.642 187.838C208.174 187.934 201.352 193.302 201.061 193.683C198.816 196.61 199.911 201.914 202.27 204.573C206.084 208.864 211.01 207.523 215.983 206.232C220.741 204.996 228.659 200.86 232.69 197.942C233.954 197.029 239.413 192.593 239.426 191.329C239.449 189.066 236.963 191.143 236.077 189.647C236.772 187.593 239.494 186.948 238.29 184.38L233.854 186.039C233.399 183.702 238.331 181.148 234.418 180.489C234.272 181.575 233.499 182.866 232.19 182.707L232.186 182.712Z" fill="currentColor"/>
<path d="M49.2285 208.328C51.751 207.487 53.3009 211.332 50.692 212.073C47.8195 212.887 47.156 209.019 49.2285 208.328Z" fill="currentColor"/>
<path d="M49.8876 195.584C50.9602 197.329 49.5558 199.543 47.4333 197.752C46.0061 195.489 48.9968 194.13 49.8876 195.584Z" fill="currentColor"/>
<path d="M38.8522 0.682445C39.6566 3.46857 39.7294 5.72293 42.8564 6.78648C44.5244 7.35461 45.2789 7.39551 46.8833 6.60467C49.8921 5.12298 48.7695 1.76417 50.1648 0.814252C51.7511 -0.267475 56.6779 0.477917 58.6869 0.550638C59.3186 0.573364 59.9549 0.164307 60.7867 0.309749C62.4638 0.596089 62.3684 3.10497 62.8501 4.29123C64.4636 8.25908 70.954 8.02273 71.9721 3.93672C72.1948 3.04134 71.9221 1.23694 72.7175 0.764257C72.8357 0.69608 75.19 0.0824959 75.3309 0.0779508C75.8218 0.0597706 76.2217 0.527913 76.7762 0.550638C78.4852 0.623359 80.1896 0.437011 81.8985 0.309749C83.5302 0.591544 83.5848 3.23678 84.1165 4.44122C85.6255 7.89093 89.4388 8.24544 92.3931 6.32742C93.9975 5.2866 94.0839 2.59592 94.5747 0.905154C95.3519 -0.0902168 103.906 0.664265 105.606 0.491552C107.015 2.27322 106.424 4.60484 108.537 6.04563C112.378 8.65905 117.646 5.95927 116.8 1.10514L117.255 0.655175C121.445 0.709716 125.713 -0.112942 129.885 0.614269C131.035 0.814252 131.476 4.35032 132.449 5.59112C135.799 9.85894 142.916 6.48196 141.221 0.941514C141.83 0.0188649 152.37 0.655175 153.802 0.832433C154.938 1.37784 154.461 2.59592 154.751 3.47766C155.733 6.45014 158.383 8.39543 161.578 7.26825C162.31 7.00918 164.246 5.48659 164.564 4.823C165.464 2.97316 164.128 0.768802 167.323 0.34611C169.296 0.846068 176.445 -0.544724 177.39 1.15513C178.549 3.23677 177.609 6.26834 181.036 7.38643C184.208 8.41816 186.353 6.71375 187.421 3.85036C187.712 3.07315 187.581 1.98234 187.93 1.41875C188.79 0.0325001 193.825 0.218848 195.362 0.32793C199.425 0.618814 197.498 2.53229 199.42 4.98663C201.207 7.26825 204.347 8.17727 206.815 6.3456C209.497 4.35486 207.156 0.696081 211.038 0.309749C212.233 0.191578 216.224 0.177942 217.373 0.309749C221.591 0.786982 219.26 5.66384 223.487 6.86829C226.609 7.75912 229.254 6.75466 230.209 3.4913C230.654 1.9687 229.991 0.618814 231.872 0.32793C233.358 0.100676 240.544 0.146127 241.644 0.773347C242.599 1.31876 242.135 2.62319 242.403 3.63674C243.476 7.70913 249.407 8.49088 252.234 5.90019C254.479 3.84581 251.102 0.968785 256.047 0.432466C259.397 0.0688607 263.901 1.0915 267.142 0.923334C268.478 0.855158 269.146 -0.244749 270.355 1.35057L270.564 15.7812C270.233 16.8811 267.765 16.8084 266.683 17.6356C263.988 19.6899 264.02 23.4942 266.537 25.6531C267.983 26.8939 269.146 26.4757 270.464 27.4529L270.76 36.5431C270.128 38.3156 268.665 38.0293 267.387 38.552C264.179 39.861 264.02 45.3332 266.501 47.5603C267.601 48.5511 268.692 48.2648 269.701 48.7375C271.246 49.4601 270.628 53.5053 270.614 55.0415C270.605 56.005 271.083 57.2595 270.651 58.3821C269.883 60.3865 266.769 59.5048 265.438 62.5454C264.31 65.1225 265.129 67.8177 267.56 69.2812C269.165 70.2448 270.846 69.9675 270.923 72.5537C270.983 74.4444 271.11 78.0714 270.923 79.803C270.687 81.9756 269.228 81.3165 267.637 81.9438C263.701 83.4891 263.015 89.0886 266.937 91.0248C269.505 92.2884 270.61 91.0975 270.933 94.8745C271.055 96.3153 271.014 99.1605 270.896 100.592C270.701 102.978 268.924 102.351 267.333 103.06C263.583 104.733 263.351 110.805 267.087 112.596C268.783 113.409 270.624 112.459 270.928 115.091C271.092 116.482 271.001 120.836 270.819 122.295C270.496 124.904 267.606 124.067 266.083 125.645C263.679 128.131 264.238 133.139 267.533 134.476C268.392 134.821 269.814 134.644 270.296 135.33C270.992 136.321 271.196 144.448 270.764 145.411C270.042 147.025 266.606 146.093 265.26 148.956C263.915 151.82 265.092 154.433 267.806 155.919C269.324 156.751 270.219 156.156 270.778 158.378C270.969 159.133 270.978 165.282 270.846 166.009C270.383 168.559 268.06 166.973 266.088 169.091C264.088 171.241 264.169 173.909 265.938 176.195C267.537 178.267 269.037 177.313 270.31 178.158C271.583 179.004 270.41 186.68 270.564 188.348C270.183 189.621 267.201 189.548 266.078 190.498C264.542 191.803 264.301 194.684 264.956 196.489C266.074 199.561 268.137 198.843 270.564 200.079C270.969 200.702 271.11 208.469 270.914 209.515C270.569 211.351 268.183 210.574 266.687 211.624C263.456 213.892 263.479 218.478 266.892 220.491C269.124 221.805 270.66 220.555 270.933 224.318C270.973 224.859 270.655 225.368 270.678 225.813C270.751 227.231 271.333 231.168 270.773 232.304C270.214 233.44 267.56 232.895 266.424 233.985C265.033 235.331 264.147 237.644 264.719 239.553C264.901 240.158 266.692 242.239 267.215 242.567C268.365 243.289 270.587 242.789 270.91 244.525C271.11 245.594 271.096 252.77 270.696 253.647C270.146 254.852 268.683 254.488 267.651 254.825C265.251 255.602 264.315 259.82 266.097 261.71C267.578 263.283 270.201 262.642 270.783 264.565C271.083 265.551 271.078 270.801 270.933 271.987C270.855 272.609 270.56 273.05 270.251 273.569L261.115 274.259L258.997 273.914C258.156 273.9 257.338 274.191 256.502 274.168C251.439 274.014 253.811 272.419 251.761 269.71C249.125 266.224 244.626 267.605 243.008 271.228C242.721 271.873 242.671 272.891 242.39 273.323C241.626 274.496 237.958 273.732 236.663 274.232C235.39 273.9 231.645 274.559 230.95 273.323C230.322 272.21 230.391 270.419 229.441 269.101C227.663 266.633 223.991 266.778 222.032 268.96C220.241 270.951 221.728 273.45 217.928 273.909C216.701 274.055 210.106 274.237 209.36 273.796C208.597 273.132 208.906 272.06 208.615 271.223C207.015 266.596 201.443 265.824 199.398 270.469C198.952 271.482 199.075 273.073 198.066 273.664C197.575 273.955 194.921 274.214 194.139 274.259C192.948 274.332 188.403 274.391 187.64 273.8C187.112 271.319 186.671 268.151 183.726 267.451C178.468 266.201 178.736 270.819 176.177 273.796C172.764 274.068 169.323 274.259 165.914 273.796C165.11 273.414 165.378 271.914 165.082 271.005C163.61 266.487 157.379 266.278 155.301 270.419C154.202 272.619 155.024 274.132 151.552 274.214C150.961 274.228 150.402 273.928 149.788 273.928C147.125 273.941 144.43 274.073 141.775 273.796C140.085 271.396 141.207 269.114 137.857 267.76C136.13 267.06 135.185 267.183 133.521 267.946C129.999 269.56 131.213 273.037 129.404 273.787C125.731 274.314 122.022 274.068 118.327 273.714C116.782 273.055 117.514 270.214 115.541 268.655C112.891 266.555 108.269 267.083 107.224 270.61C106.787 272.087 107.819 273.609 105.71 273.923C103.492 274.255 99.4789 274.459 97.279 274.246C93.7793 273.9 95.2383 272.319 94.1748 270.105C93.8475 269.423 92.1795 267.864 91.475 267.678C91.1887 267.601 88.7525 267.287 88.5434 267.305C87.6299 267.392 85.5119 269.401 85.0983 270.205C84.5165 271.341 85.0619 272.569 84.162 273.491C81.2622 273.614 75.949 275.014 73.3129 273.759C72.2175 273.237 72.2675 270.405 71.1949 269.037C69.1587 266.446 63.8137 267.369 62.5911 270.319C62.1457 271.391 62.3593 273.705 61.0821 273.937C59.6459 273.746 58.2142 274.105 56.8597 274.178C56.487 274.196 56.0598 273.928 55.6553 273.937C54.1372 273.968 52.2965 274.632 50.6603 274.1C48.9104 273.537 49.5104 268.592 46.756 267.724C44.838 267.519 43.32 267.105 41.6247 268.346C39.793 269.687 39.6112 271.346 39.243 273.432C38.9022 273.982 35.6933 274.214 34.8616 274.241C33.5208 274.291 29.8166 274.387 28.6621 274.105C26.6714 273.623 27.4259 272.582 27.0168 271.201C25.3351 265.515 17.004 267.61 17.4494 273.282C16.854 273.319 16.3404 273.828 15.8223 273.914C12.9634 274.4 9.06377 274.005 6.19583 273.914C4.79595 273.868 1.69621 274.505 0.887192 273.2C-0.230895 271.391 0.991729 266.056 0.600853 263.892C0.7872 263.188 4.31872 262.783 5.26864 261.856C6.35491 260.792 7.02758 258.033 6.30037 256.629C4.91867 253.957 2.3507 255.22 0.369054 253.666L0.305423 244.221C0.587217 242.726 4.35963 243.03 5.74587 241.217C8.05477 238.19 6.34582 234.404 3.12337 232.936C2.19163 232.513 1.10536 232.958 0.537221 231.627C0.169071 230.772 0.137255 223.982 0.328148 222.823C0.700844 220.555 2.19163 221.432 3.64605 221.009C5.64134 220.432 7.28211 217.737 7.15484 215.692C7.04576 213.942 5.46862 211.406 3.70059 210.969C2.97792 210.792 2.25071 210.978 1.50078 210.756C-0.812665 210.065 0.450865 206.374 0.550857 204.702C0.632668 203.334 -0.0945433 201.379 0.891737 199.857C8.97287 200.47 9.05014 188.957 1.11445 189.121L0.296333 188.126C0.0690793 186.04 0.332693 183.885 0.296333 181.785C0.278153 180.658 -0.389973 180.085 0.341784 178.795C1.07354 177.504 3.34608 177.749 4.8414 176.658C8.48655 173.995 7.55936 169.359 3.53697 167.691C2.31889 167.187 0.705389 167.518 0.373599 166.028C0.169071 165.091 0.137255 157.919 0.373599 157.11C0.800836 155.615 2.56432 156.465 3.77331 156.006C9.65918 153.774 6.97304 144.798 0.641758 145.997C0.505406 145.361 0.341784 144.738 0.296333 144.079C0.209976 142.807 0.350874 136.603 0.946278 135.653C1.7553 134.353 4.04147 134.376 5.11411 133.489C8.52291 130.667 7.52754 125.545 3.23245 124.254C2.60068 124.063 1.55986 124.358 1.10081 123.995C-0.376338 122.827 1.04627 115.691 0.441775 113.75C2.25526 112.328 3.8324 113.437 5.58679 111.637C8.21385 108.941 7.0094 104.415 3.62787 103.047C2.9052 102.751 1.8462 102.774 1.23262 102.428C0.0236285 101.742 0.950823 97.4288 0.941733 96.1017C0.928098 94.9199 0.173616 92.9337 0.891737 91.9247C1.49623 91.0703 5.77769 92.0338 6.75033 88.6614C7.43209 86.298 6.60489 83.0164 4.24145 81.921C2.48251 81.1029 0.650848 81.8392 0.587217 79.2122C0.569037 78.5122 0.905372 77.8532 0.887192 77.3669C0.837196 75.7852 0.159981 72.29 0.76902 70.9174C1.22807 69.8902 3.43243 69.6584 4.43689 69.1539C7.96841 67.3859 8.16385 62.7408 4.85049 60.4865C3.44152 59.5275 0.941733 60.0502 0.509951 58.1867C0.7872 55.196 -0.330887 52.1236 0.773565 49.2056C1.26898 48.3466 2.3507 48.6966 3.24608 48.3602C7.01849 46.9422 8.25475 42.038 5.4459 39.0792C4.14601 37.7111 2.36434 38.6247 1.30534 37.6339C-0.453604 35.984 1.2917 30.0845 0.591762 27.662C2.7234 26.4348 4.49598 27.3438 6.20492 25.0713C7.34574 23.5532 7.32756 21.8852 7.26847 20.0672C6.0413 18.2582 5.54589 17.5719 3.33244 17.0311C2.26889 16.772 1.65985 17.5992 0.996274 16.0766C-0.249076 13.2223 1.00536 5.45477 0.632668 1.99597C1.64167 -0.671986 4.20964 0.31884 6.17765 0.32793C8.51837 0.332475 11.1818 -0.0174956 13.4134 0.000684638C17.054 0.0279551 16.295 1.15059 17.354 3.62765C18.4993 6.3047 21.7445 7.36824 24.4443 6.50014C27.7349 5.44568 26.835 1.03696 28.6439 0.446102L36.9705 0.300659L38.8476 0.682445H38.8522ZM58.755 5.52749C58.1233 4.81391 54.669 5.22297 53.6055 5.19116C51.7374 8.45906 50.3739 10.7498 46.297 10.9907C43.0336 11.1861 39.3339 10.6952 37.125 8.00455C35.9979 6.63194 36.2978 5.03662 34.2116 4.85937C33.6617 4.81391 31.7891 5.0548 31.3892 5.30024C30.8119 5.6593 30.571 7.35461 29.962 7.87275C26.985 10.418 22.8944 11.627 19.0766 10.3634C17.6267 9.88167 17.354 8.99084 16.6131 8.64995C16.3177 8.5136 15.8405 8.76358 15.2951 8.44088C14.1543 7.7773 13.5634 5.30933 13.0953 5.16389C11.9772 5.13207 10.5773 5.4275 9.51828 5.44568C8.6729 5.45931 7.94569 4.99572 6.8276 5.15934C4.55506 5.50022 5.78678 6.94101 5.77314 8.30907C5.75951 9.67714 5.2141 11.3361 5.49589 12.7905C5.69133 13.395 7.68662 13.8495 8.44564 14.3677C12.2635 16.9538 12.309 24.4668 9.37284 27.8438C8.64108 28.6846 5.95949 30.0072 5.60043 30.7935C5.18228 31.7116 5.58225 33.2024 5.42772 34.2205C11.8226 36.2613 13.0498 42.9243 10.0319 48.4966C8.60472 51.1327 5.02321 51.0509 5.1641 54.1461C5.25955 56.2141 6.83669 56.255 7.86842 57.1731C12.1999 61.0092 13.4134 67.4814 8.77743 71.6855C7.66389 72.6945 5.45499 72.8491 5.42772 74.6717C5.41863 75.4034 5.88222 76.2988 5.5777 77.2487C10.8591 80.0076 12.5998 85.9889 10.1273 91.4339C8.6229 94.7427 4.53688 94.0927 5.52316 98.7605C5.77314 99.9559 6.80487 99.5696 7.87297 100.319C12.4499 103.533 12.4271 111.382 8.30475 114.955C6.67761 116.364 4.86413 116.223 5.26409 118.982C5.59134 121.236 6.47308 120.65 7.95932 121.654C12.5089 124.727 12.2635 131.726 9.3183 135.889C8.30929 137.316 6.30946 137.712 5.74587 138.339C5.35045 138.78 5.27319 141.643 5.51407 142.052C5.60498 142.207 7.9775 143.407 8.532 143.925C12.5089 147.625 11.609 154.106 8.3502 157.81C8.25021 157.924 8.45928 158.305 8.40474 158.355C8.14112 158.592 6.45036 158.996 5.94131 159.346C4.78232 160.151 5.20501 162.087 5.5368 163.31C5.88677 164.596 6.64125 164.087 7.63662 164.75C11.8363 167.532 12.6089 175.195 9.26376 178.817C7.36846 180.867 4.85049 180.09 5.00957 183.903C5.09593 186.021 7.06849 185.999 8.43655 187.244C10.8364 189.43 11.2136 192.516 10.8454 195.63C10.6591 197.22 9.13195 201.038 7.88206 202.011C5.90495 203.547 4.4778 202.561 5.15501 206.215C5.40954 207.583 6.62762 207.356 7.41846 207.874C8.52291 208.597 10.5909 211.737 10.9591 213.019C11.9544 216.487 10.5182 221.627 8.00477 224.195C7.89115 224.314 5.47317 224.818 5.13683 225.6C5.22319 226.627 4.87322 228.286 5.46862 229.136C5.77314 229.577 8.17294 230.568 9.06377 231.572C11.709 234.549 11.8544 240.662 9.67281 243.862C8.60018 245.435 4.9823 246.771 4.85958 248.189C4.62324 250.811 6.87759 250.952 8.46837 252.384C11.9181 255.493 11.8954 261.138 9.07741 264.678C8.13203 265.869 4.88231 266.887 5.12774 268.346L5.72315 268.66L5.45044 269.428C6.39582 269.192 7.50027 269.687 8.31384 269.669C10.2773 269.628 10.1773 269.096 12.3226 269.669C13.9588 270.105 14.6497 267.546 15.4041 266.56C18.7402 262.229 27.0213 262.41 30.1893 266.86C31.4664 268.66 30.6619 270.246 33.9435 269.71C35.8251 269.401 35.807 267.883 36.5842 266.619C39.193 262.388 47.4878 261.71 51.0193 265.042C52.2692 266.219 52.9055 267.819 53.7191 269.283C53.8964 269.387 57.5188 269.796 57.7869 269.746C58.8005 269.564 58.5141 268.387 58.9232 267.546C61.9048 261.424 72.1993 261.006 75.5718 267.037C76.6172 268.905 75.7263 269.946 78.6034 269.742C81.0168 269.569 80.5032 268.374 81.5304 266.924C82.1531 266.046 82.7848 265.183 83.6166 264.483C87.1799 261.488 93.5248 262.151 96.5564 265.669C97.2836 266.515 98.1562 268.896 98.4971 269.16C98.8198 269.41 101.342 269.646 101.906 269.642C103.333 269.637 104.515 265.933 105.647 264.787C107.692 262.719 113.487 262.169 116.146 263.278C118.804 264.387 120.318 267.292 121.736 269.655L126.827 269.151C127.813 268.237 128.049 266.705 128.84 265.742C130.04 264.283 133.149 262.751 135.026 262.66C140.262 262.406 143.366 264.992 145.198 269.669C146.675 269.551 149.247 270.214 150.552 269.569C151.424 269.137 151.506 267.933 152.07 267.169C155.82 262.074 163.996 260.974 167.891 266.437C168.664 267.519 168.891 269.601 170.309 269.76C170.618 269.796 173.073 269.642 173.195 269.564C174.118 268.978 174.704 266.687 175.482 265.846C177.786 263.347 182.126 262.147 185.422 263.088C188.24 263.892 190.508 267.028 191.171 269.76L195.221 269.596C196.257 267.001 197.466 264.487 200.339 263.551C205.87 261.751 210.615 263.897 212.706 269.301C213.71 269.201 216.192 269.632 216.783 269.137C217.373 268.642 218.232 266.519 219.051 265.674C221.064 263.597 224.196 262.678 227.041 262.779C230.141 262.888 232.29 265.306 233.949 267.664C234.64 268.646 234.036 269.337 235.863 269.669C236.345 269.755 238.758 269.778 238.972 269.582C239.394 269.196 239.476 268.042 239.808 267.424C242.58 262.274 250.534 261.924 254.507 265.806C254.807 266.096 256.111 267.669 256.357 268.028C256.634 268.437 256.475 269.56 257.352 269.873L265.124 269.66C267.542 266.751 265.606 266.874 263.851 265.515C259.224 261.942 259.793 254.652 264.297 251.179C264.96 250.67 266.019 250.47 266.078 250.398C266.147 250.311 266.342 248.448 266.324 248.207C266.201 246.607 265.129 246.98 264.315 246.348C259.824 242.871 258.874 237.508 261.674 232.567C261.902 232.172 262.611 230.877 262.806 230.681C264.101 229.381 266.333 229.727 266.242 227.159C266.147 224.536 264.533 225.191 263.479 224.104C263.27 223.886 261.847 222.182 261.633 221.877C259.347 218.655 259.915 212.028 262.601 209.201C264.37 207.342 266.628 208.188 266.133 204.706C265.924 203.243 262.788 201.847 261.756 200.334C259.793 197.457 259.847 192.757 261.379 189.721C262.297 187.903 264.074 186.003 266.078 185.521C266.124 184.699 266.201 183.817 266.115 182.99C265.933 181.199 265.074 181.735 263.86 180.722C261.533 178.776 260.347 177.031 260.252 173.941C260.17 171.273 260.756 167.405 262.829 165.523C264.683 163.841 267.092 164.205 266.124 160.433C265.365 159.951 264.456 159.674 263.724 159.137C259.629 156.124 259.72 148.911 262.788 145.27C263.347 144.607 265.86 142.63 265.965 142.416C266.21 141.911 266.21 139.862 266.128 139.23C265.901 137.475 264.751 137.898 263.915 137.294C259.197 133.88 259.247 127.94 262.247 123.308C262.501 122.913 263.001 122.172 263.329 121.89C265.115 120.354 266.683 121.4 266.097 117.841C265.824 116.186 263.983 115.959 262.951 114.955C259.12 111.241 259.824 104.519 263.283 100.81C264.37 99.6423 266.392 99.0151 266.447 97.3152C266.515 95.1154 265.174 95.6381 263.929 94.7381C259.111 91.2475 259.143 83.1664 263.388 79.1985C264.133 78.5032 265.842 77.9259 266.201 77.1669L266.433 73.799C258.465 71.4537 257.961 58.1912 266.069 55.7869C266.901 52.1281 263.77 51.6145 262.033 49.5011C259.247 46.1104 259.774 39.1837 262.783 36.0567C264.556 34.216 266.592 35.0295 266.128 31.5253C265.947 30.1572 265.247 30.6526 264.319 30.0163C260.388 27.3075 259.443 23.8941 260.515 19.3081C261.361 15.6903 263.501 14.9994 266.056 12.7814L265.838 5.26842C265.501 4.82755 262.188 4.80028 261.42 4.8321C260.283 4.87755 257.016 5.09116 256.429 5.88655C256.188 6.2138 256.461 6.65467 256.293 6.93192C253.511 11.4861 247.048 13.2723 242.317 10.6861C240.412 9.64533 238.285 5.00935 236.99 4.85482C236.763 4.82755 234.827 5.0139 234.654 5.12298C234.208 5.39568 233.754 6.72739 233.358 7.23644C229.072 12.736 221.882 13.0587 217.246 7.71821C216.446 6.79557 215.905 4.88209 214.678 4.81391C212.528 4.69574 212.324 6.98191 211.097 8.35907C208.17 11.6497 201.298 12.5724 197.784 9.66351C197.402 9.3499 195.516 7.46369 195.307 7.16826C194.644 6.22743 195.243 4.87755 193.362 5.0139C189.758 5.27751 191.407 8.24999 189.167 9.81349C184.931 12.7678 178.44 12.4178 175.295 8.01819C174.659 7.1319 174.273 5.06389 173 4.93209C172.695 4.90027 169.718 5.21388 169.573 5.30478C168.405 6.04563 167.878 8.1909 166.846 9.21809C164.492 11.5633 159.419 12.0906 156.351 11.277C153.974 10.6452 153.247 9.88167 151.82 7.96365C151.324 7.30007 150.806 5.86837 150.479 5.53204C149.711 4.74119 146.516 4.84573 145.643 5.43659C144.998 5.87292 143.421 8.8363 142.621 9.57715C139.394 12.5678 132.717 12.3042 129.54 9.26354C128.076 7.86366 127.526 5.3775 125.059 5.12752C124.527 5.07298 120.959 5.15934 120.682 5.29569C120.177 5.54113 118.814 8.26362 117.641 9.19082C112.987 12.886 106.401 10.6452 102.874 6.50468C102.665 6.25925 102.86 5.80474 102.592 5.6093C101.938 5.12752 99.9152 5.00026 99.1198 5.1548C97.6699 5.43659 97.4699 7.17735 96.8564 7.94092C95.1656 10.0362 92.4658 11.3406 89.7751 11.4952C84.6937 11.7906 81.6258 9.14991 79.4442 4.82755L76.5399 5.11843C76.099 6.06835 75.6036 7.00464 74.9537 7.83639C73.2356 10.0407 71.5449 11.2316 68.6224 11.4815C64.8409 11.8042 61.3366 9.25899 59.1323 6.49559C58.8959 6.20016 58.9096 5.70475 58.755 5.53204V5.52749Z" fill="currentColor"/>
<path d="M254.016 230.032C254.343 161.433 253.961 93.4888 253.711 24.6128L253.684 16.9453L18.2312 16.5771C17.7449 17.1453 17.5812 17.8452 17.504 18.5679C16.9722 23.372 17.9767 29.1125 17.5131 33.962C17.4449 34.6938 16.8949 35.3301 16.9086 35.7664C16.9222 36.1664 17.4767 36.6664 17.5358 37.5617C17.7403 40.7296 17.1676 44.8657 17.1813 48.1336C17.4176 104.82 17.1722 161.788 17.1949 218.874C17.1949 229.336 17.1949 240.122 17.3994 250.621C17.4449 253.03 15.9723 256.111 19.4902 256.457C25.0124 257.002 32.1527 256.42 37.8841 256.439C91.3205 256.63 143.889 256.261 196.875 256.439H230.036C237.099 255.793 245.83 257.343 252.689 256.466C253.13 256.411 253.461 256.384 253.766 256.016C253.861 255.898 254.025 253.398 254.043 252.994C254.411 245.549 253.984 237.554 254.02 230.036L254.016 230.032ZM249.748 251.457C249.721 251.666 249.693 251.78 249.662 251.78C249.63 251.78 249.603 251.671 249.575 251.471C247.916 251.594 246.253 251.653 244.589 251.644C239.54 251.775 234.49 251.857 229.441 251.88C212.174 252.066 194.898 252.094 177.631 252.094C177.504 252.094 177.377 252.094 177.25 252.094C177.086 252.094 176.922 252.094 176.759 252.094C176.709 252.094 176.659 252.094 176.604 252.094C176.541 252.094 176.472 252.094 176.409 252.094C176.186 252.094 175.968 252.094 175.745 252.094C175.172 252.094 174.604 252.094 174.032 252.094C170.073 252.094 166.114 252.089 162.155 252.08C161.642 252.08 161.133 252.08 160.619 252.08C160.419 252.08 160.224 252.08 160.028 252.08C159.437 252.148 158.842 252.185 158.242 252.153C157.878 252.135 157.528 252.107 157.188 252.075C156.919 252.075 156.651 252.075 156.383 252.075C155.72 252.075 155.051 252.071 154.388 252.066C152.679 252.062 150.965 252.053 149.256 252.048C148.097 252.044 146.938 252.039 145.779 252.035C144.893 252.035 144.011 252.025 143.125 252.021C142.071 252.016 141.021 252.007 139.966 251.998C139.226 251.994 138.48 251.989 137.739 251.984C136.276 251.975 134.812 251.966 133.349 251.957C132.762 251.957 132.176 251.953 131.59 251.944C121.259 251.994 110.928 252.003 100.602 252.003C99.9106 252.003 99.2198 252.003 98.5289 252.003C97.6427 252.003 96.7564 252.003 95.8701 252.003C78.5988 252.003 61.3275 251.957 44.0608 251.789C37.7795 251.748 31.4983 251.639 25.217 251.466C25.1579 251.466 25.1033 251.457 25.0442 251.453C24.6988 251.444 24.3534 251.435 24.0034 251.425C23.5626 251.394 23.1217 251.362 22.6763 251.325C22.6354 251.812 22.5899 252.075 22.549 252.075C22.5036 252.075 22.4581 251.807 22.4127 251.307C22.0718 251.28 21.7263 251.257 21.3855 251.23C21.7218 251.198 22.0627 251.171 22.399 251.148C22.3036 249.939 22.2218 247.589 22.149 244.335C21.4764 217.674 21.5673 118.282 22.349 105.679L22.3263 21.4358L22.8626 21.654L23.099 21.1404C36.866 21.404 50.6194 21.3631 64.4227 21.4267C76.8262 21.4858 89.3843 21.7131 101.838 21.7494C111.664 21.7813 121.418 21.754 131.408 21.7449C161.655 21.7085 192.439 21.2767 222.791 21.1495C229.468 21.1222 236.181 21.3995 242.749 20.9313C243.58 20.8722 245.121 21.7767 245.226 21.6994C245.285 21.6585 245.244 21.2995 245.344 21.2358C245.689 21.0222 249.18 21.0722 249.198 21.2949C249.257 29.5351 249.116 37.7935 249.18 46.0383C249.33 65.6912 249.534 85.4986 249.612 105.342C249.625 105.283 249.643 105.247 249.657 105.247C250.734 105.247 250.734 241.999 249.762 251.285L250.893 251.371C250.507 251.407 250.125 251.439 249.739 251.466L249.748 251.457Z" fill="currentColor"/>
<path d="M264.188 246.33C259.697 242.853 258.747 237.49 261.547 232.55C261.774 232.154 262.483 230.859 262.679 230.663C263.974 229.363 266.206 229.709 266.115 227.141C266.019 224.518 264.406 225.173 263.351 224.087C263.142 223.868 261.72 222.164 261.506 221.86C259.22 218.637 259.788 212.01 262.474 209.183C264.242 207.324 266.501 208.17 266.006 204.688C265.797 203.225 262.661 201.829 261.629 200.316C259.665 197.439 259.72 192.739 261.252 189.703C262.17 187.885 263.947 185.985 265.951 185.504C265.997 184.681 266.074 183.799 265.988 182.972C265.806 181.181 264.947 181.717 263.733 180.704C261.406 178.759 260.22 177.013 260.124 173.923C260.043 171.255 260.629 167.387 262.701 165.505C264.556 163.824 266.965 164.187 265.997 160.415C265.238 159.933 264.329 159.656 263.597 159.119C259.502 156.106 259.593 148.893 262.661 145.252C263.22 144.589 265.733 142.612 265.838 142.398C266.083 141.894 266.083 139.844 266.001 139.212C265.774 137.458 264.624 137.88 263.788 137.276C259.07 133.862 259.12 127.922 262.12 123.291C262.374 122.895 262.874 122.154 263.201 121.873C264.988 120.336 266.556 121.382 265.969 117.823C265.697 116.168 263.856 115.941 262.824 114.937C258.993 111.223 259.697 104.501 263.156 100.792C264.242 99.6244 266.265 98.9972 266.319 97.2973C266.388 95.0975 265.047 95.6202 263.801 94.7203C258.984 91.2297 259.015 83.1485 263.26 79.1807C264.006 78.4853 265.715 77.9081 266.074 77.149L266.306 73.7811C258.338 71.4359 257.834 58.1734 265.942 55.769C266.774 52.1102 263.642 51.5967 261.906 49.4832C259.12 46.0926 259.647 39.1659 262.656 36.0389C264.429 34.1981 266.465 35.0117 266.001 31.5074C265.819 30.1394 265.119 30.6348 264.192 29.9985C260.261 27.2896 259.315 23.8763 260.388 19.2903C261.233 15.6724 263.374 14.9816 265.928 12.7636L265.71 5.25057C265.374 4.8097 262.061 4.78243 261.292 4.81424C260.156 4.85969 256.888 5.07331 256.302 5.8687C256.061 6.19594 256.334 6.63681 256.166 6.91406C253.384 11.4682 246.921 13.2544 242.19 10.6683C240.285 9.62747 238.158 4.9915 236.863 4.83697C236.635 4.8097 234.699 4.99604 234.527 5.10513C234.081 5.37783 233.627 6.71408 233.231 7.21858C228.945 12.7181 221.755 13.0408 217.119 7.69582C216.319 6.77317 215.778 4.85969 214.551 4.79152C212.401 4.67334 212.197 6.95951 210.969 8.33667C208.042 11.6273 201.17 12.55 197.657 9.64111C197.275 9.3275 195.389 7.44129 195.18 7.14586C194.516 6.20503 195.116 4.85515 193.235 4.9915C189.63 5.25511 191.28 8.22759 189.04 9.79109C184.803 12.7454 178.313 12.3954 175.168 7.99579C174.532 7.1095 174.145 5.04149 172.873 4.90969C172.568 4.87787 169.591 5.19148 169.446 5.28238C168.278 6.02323 167.75 8.1685 166.719 9.19569C164.364 11.5409 159.292 12.0682 156.224 11.2546C153.847 10.6228 153.12 9.85927 151.693 7.94125C151.197 7.27767 150.679 5.84597 150.352 5.50964C149.584 4.71879 146.389 4.82333 145.516 5.41419C144.871 5.85052 143.293 8.8139 142.493 9.55475C139.266 12.5454 132.59 12.2818 129.413 9.24114C127.949 7.84126 127.399 5.3551 124.931 5.10513C124.4 5.05058 120.832 5.13694 120.554 5.27329C120.05 5.51873 118.686 8.24122 117.514 9.16842C112.86 12.8636 106.274 10.6228 102.747 6.48228C102.538 6.23685 102.733 5.78234 102.465 5.5869C101.811 5.10513 99.788 4.97786 98.9926 5.1324C97.5427 5.41419 97.3427 7.15495 96.7291 7.91852C95.0384 10.0138 92.3386 11.3182 89.6479 11.4728C84.5665 11.7682 81.4986 9.12751 79.317 4.80515L76.4127 5.09604C75.9718 6.04596 75.4764 6.98224 74.8264 7.81399C73.1084 10.0183 71.4176 11.2092 68.4951 11.4591C64.7136 11.7818 61.2094 9.23659 59.005 6.47319C58.7687 6.17776 58.7823 5.68235 58.6278 5.50964C57.996 4.79606 54.5418 5.20512 53.4782 5.1733C51.6102 8.44121 50.2467 10.7319 46.1698 10.9728C42.9019 11.1682 39.2067 10.6774 36.9978 7.9867C35.8706 6.61409 36.1706 5.01877 34.0844 4.84151C33.5345 4.79606 31.6619 5.03695 31.2619 5.28238C30.6847 5.64144 30.4438 7.33676 29.8348 7.85489C26.8578 10.4001 22.7672 11.6091 18.9493 10.3456C17.4995 9.86381 17.2268 8.97298 16.4859 8.6321C16.1905 8.49575 15.7132 8.74573 15.1678 8.42303C14.027 7.75945 13.4362 5.29147 12.968 5.14603C11.8499 5.11422 10.4501 5.40965 9.39105 5.42783C8.54567 5.44146 7.81846 4.97786 6.70037 5.14149C4.42783 5.48237 5.65955 6.92315 5.64591 8.29122C5.63228 9.68656 5.08687 11.3182 5.36866 12.7727C5.5641 13.3772 7.55939 13.8317 8.31841 14.3498C12.1363 16.9359 12.1817 24.4489 9.24561 27.8259C8.51385 28.6668 5.83226 29.9894 5.4732 30.7757C5.05505 31.6938 5.45502 33.1846 5.30049 34.2027C11.6954 36.2434 12.9226 42.9065 9.90464 48.4787C8.47749 51.1149 4.89598 51.0331 5.03687 54.1283C5.13232 56.1963 6.70946 56.2372 7.74119 57.1553C12.0726 60.9913 13.2862 67.4635 8.65021 71.6677C7.53666 72.6767 5.32776 72.8312 5.30049 74.6538C5.2914 75.3856 5.755 76.2809 5.45048 77.2309C10.7318 79.9897 12.4726 85.971 10.0001 91.416C8.49567 94.7248 4.40965 94.0749 5.39593 98.7427C5.64591 99.938 6.67765 99.5517 7.74574 100.302C12.3226 103.515 12.2999 111.364 8.17752 114.937C6.55038 116.346 4.7369 116.205 5.13687 118.964C5.46411 121.218 6.34585 120.632 7.83209 121.636C12.3817 124.709 12.1363 131.708 9.19107 135.871C8.18206 137.299 6.18223 137.694 5.62319 138.321C5.22777 138.762 5.1505 141.625 5.39139 142.034C5.48229 142.189 7.85482 143.389 8.40932 143.907C12.3863 147.607 11.4863 154.088 8.22751 157.792C8.12752 157.906 8.3366 158.288 8.28205 158.338C8.01844 158.574 6.32767 158.978 5.81863 159.328C4.65963 160.133 5.08232 162.069 5.41412 163.292C5.76409 164.578 6.51857 164.069 7.51394 164.733C11.7136 167.514 12.4862 175.177 9.14107 178.8C7.24578 180.849 4.72781 180.072 4.88689 183.885C4.97324 186.003 6.9458 185.981 8.31387 187.226C10.7137 189.412 11.0909 192.498 10.7228 195.612C10.5364 197.203 9.00927 201.02 7.75937 201.993C5.78227 203.529 4.35511 202.543 5.03233 206.197C5.28685 207.565 6.50493 207.338 7.29577 207.856C8.40023 208.579 10.4682 211.719 10.8364 213.001C11.8318 216.469 10.3955 221.61 7.88209 224.178C7.76846 224.296 5.35048 224.8 5.01415 225.582C5.10051 226.609 4.75054 228.268 5.34594 229.118C5.655 229.559 8.05026 230.55 8.94109 231.554C11.5863 234.531 11.7318 240.644 9.55013 243.844C8.47749 245.417 4.85962 246.753 4.7369 248.171C4.50056 250.793 6.75491 250.934 8.34569 252.366C11.7954 255.475 11.7727 261.12 8.95472 264.66C8.00935 265.851 4.75963 266.869 5.00506 268.328L5.60046 268.642L5.32776 269.41C6.27313 269.174 7.37759 269.669 8.19115 269.651C10.1546 269.61 10.0546 269.078 12.1999 269.651C13.8361 270.087 14.527 267.528 15.2815 266.542C18.6175 262.211 26.8987 262.392 30.0666 266.842C31.3437 268.642 30.5393 270.228 33.8208 269.692C35.7025 269.383 35.6843 267.865 36.4615 266.601C39.0704 262.37 47.3651 261.693 50.8966 265.024C52.1465 266.201 52.7828 267.801 53.5964 269.265C53.7737 269.369 57.3961 269.778 57.6642 269.728C58.6778 269.546 58.3915 268.369 58.8005 267.528C61.7821 261.406 72.0767 260.988 75.4491 267.019C76.4945 268.887 75.6036 269.928 78.4807 269.724C80.8941 269.551 80.3805 268.356 81.4077 266.906C82.0304 266.029 82.6621 265.165 83.4939 264.465C87.0572 261.47 93.4021 262.133 96.4337 265.651C97.1609 266.497 98.0336 268.878 98.3744 269.142C98.6971 269.392 101.22 269.628 101.783 269.624C103.21 269.619 104.392 265.915 105.524 264.77C107.569 262.702 113.364 262.152 116.023 263.261C118.75 264.401 120.195 267.274 121.613 269.637L126.704 269.133C127.69 268.219 127.926 266.688 128.717 265.724C129.917 264.265 133.026 262.733 134.903 262.642C140.139 262.388 143.243 264.974 145.075 269.651C146.552 269.533 149.125 270.196 150.429 269.551C151.302 269.119 151.384 267.915 151.947 267.151C155.697 262.056 163.873 260.956 167.769 266.419C168.541 267.501 168.768 269.583 170.187 269.742C170.496 269.778 172.95 269.624 173.073 269.546C173.995 268.96 174.582 266.669 175.359 265.829C177.663 263.329 182.004 262.129 185.299 263.07C188.117 263.874 190.385 267.01 191.048 269.742L195.098 269.578C196.134 266.983 197.343 264.47 200.216 263.533C205.747 261.733 210.492 263.879 212.583 269.283C213.587 269.183 216.069 269.615 216.66 269.119C217.242 268.633 218.11 266.501 218.928 265.656C220.941 263.579 224.073 262.661 226.918 262.761C230.018 262.87 232.168 265.288 233.827 267.647C234.517 268.628 233.913 269.319 235.74 269.651C236.222 269.737 238.635 269.76 238.849 269.565C239.272 269.178 239.353 268.024 239.685 267.406C242.458 262.256 250.412 261.906 254.384 265.788C254.684 266.079 255.988 267.651 256.234 268.01C256.511 268.419 256.352 269.542 257.229 269.855L265.001 269.642C267.419 266.733 265.483 266.856 263.729 265.497C259.102 261.924 259.67 254.634 264.174 251.162C264.838 250.653 265.897 250.453 265.956 250.38C266.024 250.293 266.219 248.43 266.201 248.189C266.078 246.589 265.006 246.962 264.192 246.33H264.188ZM253.934 252.989C253.916 253.393 253.752 255.893 253.657 256.011C253.348 256.379 253.016 256.407 252.58 256.461C245.721 257.338 236.99 255.788 229.927 256.434H196.766C143.78 256.261 91.2114 256.625 37.775 256.434C32.0391 256.416 24.9034 256.993 19.3811 256.452C15.8632 256.107 17.3358 253.021 17.2904 250.616C17.0904 240.117 17.0904 229.332 17.0859 218.869C17.0631 161.787 17.3086 104.815 17.0722 48.1288C17.0586 44.8654 17.6313 40.7248 17.4267 37.5569C17.3677 36.6616 16.8132 36.1616 16.7995 35.7616C16.7859 35.3253 17.3313 34.6935 17.404 33.9618C17.8676 29.1076 16.8631 23.3718 17.3949 18.5676C17.4767 17.845 17.6358 17.145 18.1221 16.5769L253.575 16.945L253.602 24.6126C253.852 93.4886 254.234 161.437 253.907 230.032C253.87 237.554 254.302 245.544 253.929 252.989H253.934Z" fill="currentColor"/>
</svg>
