<svg width="272" height="275" viewBox="0 0 272 275" fill="none" xmlns="http://www.w3.org/2000/svg">
<path d="M91.4566 253.183C96.8334 253.179 102.21 253.174 107.587 253.174C113.846 253.174 120.1 253.179 126.358 253.188C125.345 236.394 125.299 219.527 125.531 202.678C125.776 184.707 127.167 166.572 127.894 148.578C127.994 146.165 127.563 144.129 127.172 141.806L144.261 132.934C149.883 145.77 172.095 143.483 183.417 140.806C191.012 139.011 197.211 136.543 198.811 127.98C198.329 113.818 199.143 98.5463 198.02 84.4929C197.716 80.6978 197.684 77.2162 194.471 75.0755C185.871 69.3624 151.879 69.2942 145.807 78.7889C143.889 81.7886 145.547 84.702 142.625 87.0472C134.158 93.8467 123.186 88.8789 113.368 92.8786C91.8384 101.651 95.6062 138.202 94.2836 156.937C93.6609 165.745 91.7702 175.053 91.2475 183.648C89.8658 206.319 91.902 230.176 91.452 253.179L91.4566 253.183ZM153.801 79.1843C161.114 75.5209 180.34 74.3165 187.967 77.0072C188.944 77.3526 190.198 77.5071 190.407 78.7525C177.617 78.6616 164.846 78.8888 152.274 81.0432C151.883 78.9979 152.729 79.7206 153.806 79.1843H153.801ZM145.007 91.7196C148.602 90.5742 147.366 86.8791 149.706 84.9247C157.828 86.4973 167.255 87.0654 175.559 86.4155C181.867 85.9201 187.339 82.9839 193.457 82.5703C193.548 86.4882 195.039 93.7785 194.139 99.0826C194.157 101.142 194.166 103.65 194.171 106.259C194.184 106.246 194.198 106.232 194.212 106.218C193.698 118.208 200.057 131.507 185.071 136.352C176.936 138.984 155.292 141.015 149.647 133.634C146.538 129.566 148.747 129.762 149.079 126.989C149.306 125.076 149.879 121.731 149.965 120.244C150.102 117.867 147.829 113.981 150.729 112.331C150.952 109.054 151.197 104.409 151.461 100.078C150.902 96.6555 147.452 94.633 144.634 92.8604L145.011 91.715L145.007 91.7196ZM119.927 96.3874C124.617 95.842 141.961 95.442 145.052 98.5554C145.979 99.4871 146.456 100.228 146.111 101.596C137.894 105.432 128.972 100.555 120.218 103.173C120.241 103.982 120.009 104.764 120.554 105.505C121.94 107.373 145.288 107.4 146.152 111.195C147.179 115.718 135.044 113.118 132.921 113.136C131.74 113.15 125.413 113.763 124.572 114.004C123.772 114.231 123.031 114.986 122.677 115.74C122.295 120.59 134.962 117.549 138.166 117.617C140.398 117.667 142.534 118.095 144.638 118.79L144.948 122.317C139.071 124.608 132.071 123.662 126.117 124.703C123.795 125.108 120.218 126.839 122.49 129.512L140.807 127.58C142.511 129.294 136.889 132.162 135.644 132.707C130.817 134.825 122.608 134.325 123.24 141.274L99.6195 139.02C99.6832 124.221 100.979 98.5781 119.918 96.3828L119.927 96.3874Z" fill="currentColor"/>
<path d="M165.223 38.333C165.769 41.3191 167.509 43.978 167.587 47.105C167.723 52.6091 164.219 58.0041 165.41 63.7172C165.841 65.7852 168.859 67.8851 166.382 69.5849C156.569 63.0582 165.519 54.2908 164.41 45.6369C164.101 43.2235 160.81 38.7784 165.228 38.333H165.223Z" fill="currentColor"/>
<path d="M175.54 48.2545C181.676 46.6137 177.299 59.9308 177.458 61.5715C177.572 62.7305 181.008 66.1984 178.567 66.5575C172.582 67.4438 175.086 56.7174 175.227 53.9676C175.29 52.6814 173.713 48.7408 175.54 48.2499V48.2545Z" fill="currentColor"/>
<path d="M153.024 69.6031C145.584 70.0258 148.984 60.4266 149.983 55.877L152.97 57.1178C151.542 62.0173 151.202 64.7626 153.024 69.6031Z" fill="currentColor"/>
<path d="M38.8522 0.682445C39.6566 3.46857 39.7294 5.72293 42.8564 6.78648C44.5244 7.35461 45.2789 7.39551 46.8833 6.60467C49.8921 5.12298 48.7695 1.76417 50.1648 0.814252C51.7511 -0.267475 56.6779 0.477917 58.6869 0.550638C59.3186 0.573364 59.9549 0.164307 60.7867 0.309749C62.4638 0.596089 62.3684 3.10497 62.8501 4.29123C64.4636 8.25908 70.954 8.02273 71.9721 3.93672C72.1948 3.04134 71.9221 1.23694 72.7175 0.764257C72.8357 0.69608 75.19 0.0824959 75.3309 0.0779508C75.8218 0.0597706 76.2217 0.527913 76.7762 0.550638C78.4852 0.623359 80.1896 0.437011 81.8985 0.309749C83.5302 0.591544 83.5848 3.23678 84.1165 4.44122C85.6255 7.89093 89.4388 8.24544 92.3931 6.32742C93.9975 5.2866 94.0839 2.59592 94.5747 0.905154C95.3519 -0.0902168 103.906 0.664265 105.606 0.491552C107.015 2.27322 106.424 4.60484 108.537 6.04563C112.378 8.65905 117.646 5.95927 116.8 1.10514L117.255 0.655175C121.445 0.709716 125.713 -0.112942 129.885 0.614269C131.035 0.814252 131.476 4.35032 132.449 5.59112C135.799 9.85894 142.916 6.48196 141.221 0.941514C141.83 0.0188649 152.37 0.655175 153.802 0.832433C154.938 1.37784 154.461 2.59592 154.751 3.47766C155.733 6.45014 158.383 8.39543 161.578 7.26825C162.31 7.00918 164.246 5.48659 164.564 4.823C165.464 2.97316 164.128 0.768802 167.323 0.34611C169.296 0.846068 176.445 -0.544724 177.39 1.15513C178.549 3.23677 177.609 6.26834 181.036 7.38643C184.208 8.41816 186.353 6.71375 187.421 3.85036C187.712 3.07315 187.581 1.98234 187.93 1.41875C188.79 0.0325001 193.825 0.218848 195.362 0.32793C199.425 0.618814 197.498 2.53229 199.42 4.98663C201.207 7.26825 204.347 8.17727 206.815 6.3456C209.497 4.35486 207.156 0.696081 211.038 0.309749C212.233 0.191578 216.224 0.177942 217.373 0.309749C221.591 0.786982 219.26 5.66384 223.487 6.86829C226.609 7.75912 229.254 6.75466 230.209 3.4913C230.654 1.9687 229.991 0.618814 231.872 0.32793C233.358 0.100676 240.544 0.146127 241.644 0.773347C242.599 1.31876 242.135 2.62319 242.403 3.63674C243.476 7.70913 249.407 8.49088 252.234 5.90019C254.479 3.84581 251.102 0.968785 256.047 0.432466C259.397 0.0688607 263.901 1.0915 267.142 0.923334C268.478 0.855158 269.146 -0.244749 270.355 1.35057L270.564 15.7812C270.233 16.8811 267.765 16.8084 266.683 17.6356C263.988 19.6899 264.02 23.4942 266.537 25.6531C267.983 26.8939 269.146 26.4757 270.464 27.4529L270.76 36.5431C270.128 38.3156 268.665 38.0293 267.387 38.552C264.179 39.861 264.02 45.3332 266.501 47.5603C267.601 48.5511 268.692 48.2648 269.701 48.7375C271.246 49.4601 270.628 53.5053 270.614 55.0415C270.605 56.005 271.083 57.2595 270.651 58.3821C269.883 60.3865 266.769 59.5048 265.438 62.5454C264.31 65.1225 265.129 67.8177 267.56 69.2812C269.165 70.2448 270.846 69.9675 270.923 72.5537C270.983 74.4444 271.11 78.0714 270.923 79.803C270.687 81.9756 269.228 81.3165 267.637 81.9438C263.701 83.4891 263.015 89.0886 266.937 91.0248C269.505 92.2884 270.61 91.0975 270.933 94.8745C271.055 96.3153 271.014 99.1605 270.896 100.592C270.701 102.978 268.924 102.351 267.333 103.06C263.583 104.733 263.351 110.805 267.087 112.596C268.783 113.409 270.624 112.459 270.928 115.091C271.092 116.482 271.001 120.836 270.819 122.295C270.496 124.904 267.606 124.067 266.083 125.645C263.679 128.131 264.238 133.139 267.533 134.476C268.392 134.821 269.814 134.644 270.296 135.33C270.992 136.321 271.196 144.448 270.764 145.411C270.042 147.025 266.606 146.093 265.26 148.956C263.888 151.87 265.092 154.433 267.806 155.919C269.324 156.751 270.219 156.156 270.778 158.378C270.969 159.133 270.978 165.282 270.846 166.009C270.383 168.559 268.06 166.973 266.088 169.091C264.088 171.241 264.169 173.909 265.938 176.195C267.537 178.267 269.037 177.313 270.31 178.158C271.583 179.004 270.41 186.68 270.564 188.348C270.183 189.621 267.201 189.548 266.078 190.498C264.542 191.803 264.301 194.684 264.956 196.489C266.074 199.561 268.137 198.843 270.564 200.079C270.969 200.702 271.11 208.469 270.914 209.515C270.569 211.351 268.183 210.574 266.687 211.624C263.456 213.892 263.479 218.478 266.892 220.491C269.124 221.805 270.66 220.555 270.933 224.318C270.973 224.859 270.655 225.368 270.678 225.813C270.751 227.231 271.333 231.168 270.773 232.304C270.219 233.436 267.56 232.895 266.424 233.985C265.033 235.331 264.147 237.644 264.719 239.553C264.901 240.158 266.692 242.239 267.215 242.567C268.365 243.289 270.587 242.789 270.91 244.525C271.11 245.594 271.096 252.77 270.696 253.647C270.146 254.852 268.683 254.488 267.651 254.825C265.251 255.602 264.315 259.82 266.097 261.71C267.578 263.283 270.201 262.642 270.783 264.565C271.083 265.551 271.078 270.801 270.933 271.987C270.855 272.609 270.56 273.05 270.251 273.569L261.115 274.259L258.997 273.914C258.156 273.9 257.338 274.191 256.502 274.168C251.439 274.014 253.811 272.419 251.761 269.71C249.125 266.224 244.626 267.605 243.008 271.228C242.721 271.873 242.671 272.891 242.39 273.323C241.626 274.496 237.958 273.732 236.663 274.232C235.39 273.9 231.645 274.559 230.95 273.323C230.322 272.21 230.391 270.419 229.441 269.101C227.663 266.633 223.991 266.778 222.032 268.96C220.241 270.951 221.728 273.45 217.928 273.909C216.701 274.055 210.106 274.237 209.36 273.796C208.597 273.132 208.906 272.06 208.615 271.223C207.015 266.596 201.443 265.824 199.398 270.469C198.952 271.482 199.075 273.073 198.066 273.664C197.575 273.955 194.921 274.214 194.139 274.259C192.948 274.332 188.403 274.391 187.64 273.8C187.112 271.319 186.671 268.151 183.726 267.451C178.468 266.201 178.736 270.819 176.177 273.796C172.764 274.068 169.323 274.259 165.914 273.796C165.11 273.414 165.378 271.914 165.082 271.005C163.61 266.487 157.379 266.278 155.301 270.419C154.202 272.619 155.024 274.132 151.552 274.214C150.961 274.228 150.402 273.928 149.788 273.928C147.125 273.941 144.43 274.073 141.775 273.796C140.085 271.396 141.207 269.114 137.857 267.76C136.13 267.06 135.185 267.183 133.521 267.946C129.999 269.56 131.213 273.037 129.404 273.787C125.731 274.314 122.022 274.068 118.327 273.714C116.782 273.055 117.514 270.214 115.541 268.655C112.891 266.555 108.269 267.083 107.224 270.61C106.787 272.087 107.819 273.609 105.71 273.923C103.492 274.255 99.4789 274.459 97.279 274.246C93.7793 273.9 95.2383 272.319 94.1748 270.105C93.8475 269.423 92.1795 267.864 91.475 267.678C91.1887 267.601 88.7525 267.287 88.5434 267.305C87.6299 267.392 85.5119 269.401 85.0983 270.205C84.5165 271.341 85.0619 272.569 84.162 273.491C81.2622 273.614 75.949 275.014 73.3129 273.759C72.2175 273.237 72.2675 270.405 71.1949 269.037C69.1587 266.446 63.8137 267.369 62.5911 270.319C62.1457 271.391 62.3593 273.705 61.0821 273.937C59.6459 273.746 58.2142 274.105 56.8597 274.178C56.487 274.196 56.0598 273.928 55.6553 273.937C54.1372 273.968 52.2965 274.632 50.6603 274.1C48.9104 273.537 49.5104 268.592 46.756 267.724C44.838 267.519 43.32 267.105 41.6247 268.346C39.793 269.687 39.6112 271.346 39.243 273.432C38.9022 273.982 35.6933 274.214 34.8616 274.241C33.5208 274.291 29.8166 274.387 28.6621 274.105C26.6714 273.623 27.4259 272.582 27.0168 271.201C25.3351 265.515 17.004 267.61 17.4494 273.282C16.854 273.319 16.3404 273.828 15.8223 273.914C12.9634 274.4 9.06377 274.005 6.19583 273.914C4.79595 273.868 1.69621 274.505 0.887192 273.2C-0.230895 271.391 0.991729 266.056 0.600853 263.892C0.7872 263.188 4.31872 262.783 5.26864 261.856C6.35491 260.792 7.02758 258.033 6.30037 256.629C4.91867 253.957 2.3507 255.22 0.369054 253.666L0.305423 244.221C0.587217 242.726 4.35963 243.03 5.74587 241.217C8.05477 238.19 6.34582 234.404 3.12337 232.936C2.19163 232.513 1.10536 232.958 0.537221 231.627C0.169071 230.772 0.137255 223.982 0.328148 222.823C0.700844 220.555 2.19163 221.432 3.64605 221.009C5.64134 220.432 7.28211 217.737 7.15484 215.692C7.04576 213.942 5.46862 211.406 3.70059 210.969C2.97792 210.792 2.25071 210.978 1.50078 210.756C-0.812665 210.065 0.450865 206.374 0.550857 204.702C0.632668 203.334 -0.0945433 201.379 0.891737 199.857C8.97287 200.47 9.05014 188.957 1.11445 189.121L0.296333 188.126C0.0690793 186.04 0.332693 183.885 0.296333 181.785C0.278153 180.658 -0.389973 180.085 0.341784 178.795C1.07354 177.504 3.34608 177.749 4.8414 176.658C8.48655 173.995 7.55936 169.359 3.53697 167.691C2.31889 167.187 0.705389 167.518 0.373599 166.028C0.169071 165.091 0.137255 157.919 0.373599 157.11C0.800836 155.615 2.56432 156.465 3.77331 156.006C9.65918 153.774 6.97304 144.798 0.641758 145.997C0.505406 145.361 0.341784 144.738 0.296333 144.079C0.209976 142.807 0.350874 136.603 0.946278 135.653C1.7553 134.353 4.04147 134.376 5.11411 133.489C8.52291 130.667 7.52754 125.545 3.23245 124.254C2.60068 124.063 1.55986 124.358 1.10081 123.995C-0.376338 122.827 1.04627 115.691 0.441775 113.75C2.25526 112.328 3.8324 113.437 5.58679 111.637C8.21385 108.941 7.0094 104.415 3.62787 103.047C2.9052 102.751 1.8462 102.774 1.23262 102.428C0.0236285 101.742 0.950823 97.4288 0.941733 96.1017C0.928098 94.9199 0.173616 92.9337 0.891737 91.9247C1.49623 91.0703 5.77769 92.0338 6.75033 88.6614C7.43209 86.298 6.60489 83.0164 4.24145 81.921C2.48251 81.1029 0.650848 81.8392 0.587217 79.2122C0.569037 78.5122 0.905372 77.8532 0.887192 77.3669C0.837196 75.7852 0.159981 72.29 0.76902 70.9174C1.22807 69.8902 3.43243 69.6584 4.43689 69.1539C7.96841 67.3859 8.16385 62.7408 4.85049 60.4865C3.44152 59.5275 0.941733 60.0502 0.509951 58.1867C0.7872 55.196 -0.330887 52.1236 0.773565 49.2056C1.26898 48.3466 2.3507 48.6966 3.24608 48.3602C7.01849 46.9422 8.25475 42.038 5.4459 39.0792C4.14601 37.7111 2.36434 38.6247 1.30534 37.6339C-0.453604 35.984 1.2917 30.0845 0.591762 27.662C2.7234 26.4348 4.49598 27.3438 6.20492 25.0713C7.34574 23.5532 7.32756 21.8852 7.26847 20.0672C6.0413 18.2582 5.54589 17.5719 3.33244 17.0311C2.26889 16.772 1.65985 17.5992 0.996274 16.0766C-0.249076 13.2223 1.00536 5.45477 0.632668 1.99597C1.64167 -0.671986 4.20964 0.31884 6.17765 0.32793C8.51837 0.332475 11.1818 -0.0174956 13.4134 0.000684638C17.054 0.0279551 16.295 1.15059 17.354 3.62765C18.4993 6.3047 21.7445 7.36824 24.4443 6.50014C27.7349 5.44568 26.835 1.03696 28.6439 0.446102L36.9705 0.300659L38.8476 0.682445H38.8522ZM58.755 5.52749C58.1233 4.81391 54.669 5.22297 53.6055 5.19116C51.7374 8.45906 50.3739 10.7498 46.297 10.9907C43.0336 11.1861 39.3339 10.6952 37.125 8.00455C35.9979 6.63194 36.2978 5.03662 34.2116 4.85937C33.6617 4.81391 31.7891 5.0548 31.3892 5.30024C30.8119 5.6593 30.571 7.35461 29.962 7.87275C26.985 10.418 22.8944 11.627 19.0766 10.3634C17.6267 9.88167 17.354 8.99084 16.6131 8.64995C16.3177 8.5136 15.8405 8.76358 15.2951 8.44088C14.1543 7.7773 13.5634 5.30933 13.0953 5.16389C11.9772 5.13207 10.5773 5.4275 9.51828 5.44568C8.6729 5.45931 7.94569 4.99572 6.8276 5.15934C4.55506 5.50022 5.78678 6.94101 5.77314 8.30907C5.75951 9.67714 5.2141 11.3361 5.49589 12.7905C5.69133 13.395 7.68662 13.8495 8.44564 14.3677C12.2635 16.9538 12.309 24.4668 9.37284 27.8438C8.64108 28.6846 5.95949 30.0072 5.60043 30.7935C5.18228 31.7116 5.58225 33.2024 5.42772 34.2205C11.8226 36.2613 13.0498 42.9243 10.0319 48.4966C8.60472 51.1327 5.02321 51.0509 5.1641 54.1461C5.25955 56.2141 6.83669 56.255 7.86842 57.1731C12.1999 61.0092 13.4134 67.4814 8.77743 71.6855C7.66389 72.6945 5.45499 72.8491 5.42772 74.6717C5.41863 75.4034 5.88222 76.2988 5.5777 77.2487C10.8591 80.0076 12.5998 85.9889 10.1273 91.4339C8.6229 94.7427 4.53688 94.0927 5.52316 98.7605C5.77314 99.9559 6.80487 99.5696 7.87297 100.319C12.4499 103.533 12.4271 111.382 8.30475 114.955C6.67761 116.364 4.86413 116.223 5.26409 118.982C5.59134 121.236 6.47308 120.65 7.95932 121.654C12.5089 124.727 12.2635 131.726 9.3183 135.889C8.30929 137.316 6.30946 137.712 5.74587 138.339C5.35045 138.78 5.27319 141.643 5.51407 142.052C5.60498 142.207 7.9775 143.407 8.532 143.925C12.5089 147.625 11.609 154.106 8.3502 157.81C8.25021 157.924 8.45928 158.305 8.40474 158.355C8.14112 158.592 6.45036 158.996 5.94131 159.346C4.78232 160.151 5.20501 162.087 5.5368 163.31C5.88677 164.596 6.64125 164.087 7.63662 164.75C11.8363 167.532 12.6089 175.195 9.26376 178.817C7.36846 180.867 4.85049 180.09 5.00957 183.903C5.09593 186.021 7.06849 185.999 8.43655 187.244C10.8364 189.43 11.2136 192.516 10.8454 195.63C10.6591 197.22 9.13195 201.038 7.88206 202.011C5.90495 203.547 4.4778 202.561 5.15501 206.215C5.40954 207.583 6.62762 207.356 7.41846 207.874C8.52291 208.597 10.5909 211.737 10.9591 213.019C11.9544 216.487 10.5182 221.627 8.00477 224.195C7.89115 224.314 5.47317 224.818 5.13683 225.6C5.22319 226.627 4.87322 228.286 5.46862 229.136C5.77314 229.577 8.17294 230.568 9.06377 231.572C11.709 234.549 11.8544 240.662 9.67281 243.862C8.60018 245.435 4.9823 246.771 4.85958 248.189C4.62324 250.811 6.87759 250.952 8.46837 252.384C11.9181 255.493 11.8954 261.138 9.07741 264.678C8.13203 265.869 4.88231 266.887 5.12774 268.346L5.72315 268.66L5.45044 269.428C6.39582 269.192 7.50027 269.687 8.31384 269.669C10.2773 269.628 10.1773 269.096 12.3226 269.669C13.9588 270.105 14.6497 267.546 15.4041 266.56C18.7402 262.229 27.0213 262.41 30.1893 266.86C31.4664 268.66 30.6619 270.246 33.9435 269.71C35.8251 269.401 35.807 267.883 36.5842 266.619C39.193 262.388 47.4878 261.71 51.0193 265.042C52.2692 266.219 52.9055 267.819 53.7191 269.283C53.8964 269.387 57.5188 269.796 57.7869 269.746C58.8005 269.564 58.5141 268.387 58.9232 267.546C61.9048 261.424 72.1993 261.006 75.5718 267.037C76.6172 268.905 75.7263 269.946 78.6034 269.742C81.0168 269.569 80.5032 268.374 81.5304 266.924C82.1531 266.046 82.7848 265.183 83.6166 264.483C87.1799 261.488 93.5248 262.151 96.5564 265.669C97.2836 266.515 98.1562 268.896 98.4971 269.16C98.8198 269.41 101.342 269.646 101.906 269.642C103.333 269.637 104.515 265.933 105.647 264.787C107.692 262.719 113.487 262.169 116.146 263.278C118.804 264.387 120.318 267.292 121.736 269.655L126.827 269.151C127.813 268.237 128.049 266.705 128.84 265.742C130.04 264.283 133.149 262.751 135.026 262.66C140.262 262.406 143.366 264.992 145.198 269.669C146.675 269.551 149.247 270.214 150.552 269.569C151.424 269.137 151.506 267.933 152.07 267.169C155.82 262.074 163.996 260.974 167.891 266.437C168.664 267.519 168.891 269.601 170.309 269.76C170.618 269.796 173.073 269.642 173.195 269.564C174.118 268.978 174.704 266.687 175.482 265.846C177.786 263.347 182.126 262.147 185.422 263.088C188.24 263.892 190.508 267.028 191.171 269.76L195.221 269.596C196.257 267.001 197.466 264.487 200.339 263.551C205.87 261.751 210.615 263.897 212.706 269.301C213.71 269.201 216.192 269.632 216.783 269.137C217.373 268.642 218.232 266.519 219.051 265.674C221.064 263.597 224.196 262.678 227.041 262.779C230.141 262.888 232.29 265.306 233.949 267.664C234.64 268.646 234.036 269.337 235.863 269.669C236.345 269.755 238.758 269.778 238.972 269.582C239.394 269.196 239.476 268.042 239.808 267.424C242.58 262.274 250.534 261.924 254.507 265.806C254.807 266.096 256.111 267.669 256.357 268.028C256.634 268.437 256.475 269.56 257.352 269.873L265.124 269.66C267.542 266.751 265.606 266.874 263.851 265.515C259.224 261.942 259.793 254.652 264.297 251.179C264.96 250.67 266.019 250.47 266.078 250.398C266.147 250.311 266.342 248.448 266.324 248.207C266.201 246.607 265.129 246.98 264.315 246.348C259.824 242.871 258.874 237.508 261.674 232.567C261.902 232.172 262.611 230.877 262.806 230.681C264.101 229.381 266.333 229.727 266.242 227.159C266.147 224.536 264.533 225.191 263.479 224.104C263.27 223.886 261.847 222.182 261.633 221.877C259.347 218.655 259.915 212.028 262.601 209.201C264.37 207.342 266.628 208.188 266.133 204.706C265.924 203.243 262.788 201.847 261.756 200.334C259.793 197.457 259.847 192.757 261.379 189.721C262.297 187.903 264.074 186.003 266.078 185.521C266.124 184.699 266.201 183.817 266.115 182.99C265.933 181.199 265.074 181.735 263.86 180.722C261.533 178.776 260.347 177.031 260.252 173.941C260.17 171.273 260.756 167.405 262.829 165.523C264.683 163.841 267.092 164.205 266.124 160.433C265.365 159.951 264.456 159.674 263.724 159.137C259.629 156.124 259.72 148.911 262.788 145.27C263.347 144.607 265.86 142.63 265.965 142.416C266.21 141.911 266.21 139.862 266.128 139.23C265.901 137.475 264.751 137.898 263.915 137.294C259.197 133.88 259.247 127.94 262.247 123.308C262.501 122.913 263.001 122.172 263.329 121.89C265.115 120.354 266.683 121.4 266.097 117.841C265.824 116.186 263.983 115.959 262.951 114.955C259.12 111.241 259.824 104.519 263.283 100.81C264.37 99.6423 266.392 99.0151 266.447 97.3152C266.515 95.1154 265.174 95.6381 263.929 94.7381C259.111 91.2475 259.143 83.1664 263.388 79.1985C264.133 78.5032 265.842 77.9259 266.201 77.1669L266.433 73.799C258.465 71.4537 257.961 58.1912 266.069 55.7869C266.901 52.1281 263.77 51.6145 262.033 49.5011C259.247 46.1104 259.774 39.1837 262.783 36.0567C264.556 34.216 266.592 35.0295 266.128 31.5253C265.947 30.1572 265.247 30.6526 264.319 30.0163C260.388 27.3075 259.443 23.8941 260.515 19.3081C261.361 15.6903 263.501 14.9994 266.056 12.7814L265.838 5.26842C265.501 4.82755 262.188 4.80028 261.42 4.8321C260.283 4.87755 257.016 5.09116 256.429 5.88655C256.188 6.2138 256.461 6.65467 256.293 6.93192C253.511 11.4861 247.048 13.2723 242.317 10.6861C240.412 9.64533 238.285 5.00935 236.99 4.85482C236.763 4.82755 234.827 5.0139 234.654 5.12298C234.208 5.39568 233.754 6.72739 233.358 7.23644C229.072 12.736 221.882 13.0587 217.246 7.71821C216.446 6.79557 215.905 4.88209 214.678 4.81391C212.528 4.69574 212.324 6.98191 211.097 8.35907C208.17 11.6497 201.298 12.5724 197.784 9.66351C197.402 9.3499 195.516 7.46369 195.307 7.16826C194.644 6.22743 195.243 4.87755 193.362 5.0139C189.758 5.27751 191.407 8.24999 189.167 9.81349C184.931 12.7678 178.44 12.4178 175.295 8.01819C174.659 7.1319 174.273 5.06389 173 4.93209C172.695 4.90027 169.718 5.21388 169.573 5.30478C168.405 6.04563 167.878 8.1909 166.846 9.21809C164.492 11.5633 159.419 12.0906 156.351 11.277C153.974 10.6452 153.247 9.88167 151.82 7.96365C151.324 7.30007 150.806 5.86837 150.479 5.53204C149.711 4.74119 146.516 4.84573 145.643 5.43659C144.998 5.87292 143.421 8.8363 142.621 9.57715C139.394 12.5678 132.717 12.3042 129.54 9.26354C128.076 7.86366 127.526 5.3775 125.059 5.12752C124.527 5.07298 120.959 5.15934 120.682 5.29569C120.177 5.54113 118.814 8.26362 117.641 9.19082C112.987 12.886 106.401 10.6452 102.874 6.50468C102.665 6.25925 102.86 5.80474 102.592 5.6093C101.938 5.12752 99.9152 5.00026 99.1198 5.1548C97.6699 5.43659 97.4699 7.17735 96.8564 7.94092C95.1656 10.0362 92.4658 11.3406 89.7751 11.4952C84.6937 11.7906 81.6258 9.14991 79.4442 4.82755L76.5399 5.11843C76.099 6.06835 75.6036 7.00464 74.9537 7.83639C73.2356 10.0407 71.5449 11.2316 68.6224 11.4815C64.8409 11.8042 61.3366 9.25899 59.1323 6.49559C58.8959 6.20016 58.9096 5.70475 58.755 5.53204V5.52749Z" fill="currentColor"/>
<path d="M254.016 230.031C254.343 161.433 253.961 93.4883 253.711 24.6123L253.684 16.9448L18.2311 16.5767C17.7447 17.1448 17.5811 17.8447 17.5039 18.5674C16.9721 23.3715 17.9765 29.112 17.5129 33.9616C17.4448 34.6933 16.8948 35.3296 16.9085 35.7659C16.9221 36.1659 17.4766 36.6659 17.5357 37.5612C17.7402 40.7292 17.1675 44.8652 17.1812 48.1331C17.4175 104.819 17.1721 161.787 17.1948 218.873C17.1948 229.336 17.1948 240.121 17.3993 250.62C17.4448 253.029 15.9722 256.111 19.4901 256.456C25.0123 257.002 32.1526 256.42 37.884 256.438C91.3203 256.629 143.889 256.261 196.875 256.438H230.036C237.099 255.793 245.83 257.343 252.689 256.465C253.129 256.411 253.461 256.384 253.766 256.016C253.861 255.897 254.025 253.398 254.043 252.993C254.411 245.548 253.984 237.553 254.02 230.036L254.016 230.031ZM249.748 251.457C249.721 251.666 249.693 251.779 249.661 251.779C249.63 251.779 249.602 251.67 249.575 251.47C247.916 251.593 246.253 251.652 244.589 251.643C239.54 251.775 234.49 251.857 229.44 251.879C212.174 252.066 194.898 252.093 177.631 252.093C177.504 252.093 177.377 252.093 177.249 252.093C177.086 252.093 176.922 252.093 176.759 252.093C176.709 252.093 176.659 252.093 176.604 252.093C176.54 252.093 176.472 252.093 176.409 252.093C176.186 252.093 175.968 252.093 175.745 252.093C175.172 252.093 174.604 252.093 174.032 252.093C170.073 252.093 166.114 252.089 162.155 252.079C161.642 252.079 161.133 252.079 160.619 252.079C160.419 252.079 160.224 252.079 160.028 252.079C159.437 252.148 158.842 252.184 158.242 252.152C157.878 252.134 157.528 252.107 157.188 252.075C156.919 252.075 156.651 252.075 156.383 252.075C155.719 252.075 155.051 252.07 154.388 252.066C152.679 252.061 150.965 252.052 149.256 252.048C148.097 252.043 146.938 252.039 145.779 252.034C144.893 252.034 144.011 252.025 143.125 252.02C142.071 252.016 141.021 252.007 139.966 251.998C139.225 251.993 138.48 251.989 137.739 251.984C136.276 251.975 134.812 251.966 133.349 251.957C132.762 251.957 132.176 251.952 131.59 251.943C121.259 251.993 110.928 252.002 100.601 252.002C99.9105 252.002 99.2197 252.002 98.5288 252.002C97.6425 252.002 96.7562 252.002 95.87 252.002C78.5987 252.002 61.3274 251.957 44.0607 251.789C37.7794 251.748 31.4981 251.639 25.2168 251.466C25.1578 251.466 25.1032 251.457 25.0441 251.452C24.6987 251.443 24.3533 251.434 24.0033 251.425C23.5624 251.393 23.1216 251.361 22.6761 251.325C22.6352 251.811 22.5898 252.075 22.5489 252.075C22.5034 252.075 22.458 251.807 22.4125 251.307C22.0717 251.28 21.7262 251.257 21.3853 251.23C21.7217 251.198 22.0626 251.17 22.3989 251.148C22.3034 249.939 22.2216 247.589 22.1489 244.335C21.4762 217.673 21.5671 118.282 22.3489 105.678L22.3262 21.4353L22.8625 21.6535L23.0988 21.1399C36.8659 21.4035 50.6192 21.3626 64.4226 21.4262C76.8261 21.4853 89.3841 21.7126 101.838 21.7489C111.664 21.7808 121.418 21.7535 131.408 21.7444C161.655 21.708 192.439 21.2763 222.791 21.149C229.468 21.1217 236.181 21.399 242.748 20.9308C243.58 20.8718 245.121 21.7762 245.225 21.699C245.285 21.658 245.244 21.299 245.344 21.2354C245.689 21.0217 249.18 21.0717 249.198 21.2944C249.257 29.5347 249.116 37.793 249.18 46.0378C249.33 65.6907 249.534 85.4981 249.611 105.342C249.625 105.283 249.643 105.246 249.657 105.246C250.734 105.246 250.734 241.999 249.761 251.284L250.893 251.37C250.507 251.407 250.125 251.439 249.739 251.466L249.748 251.457Z" fill="currentColor"/>
<path d="M264.187 246.329C259.697 242.852 258.747 237.489 261.547 232.549C261.774 232.153 262.483 230.858 262.678 230.662C263.974 229.362 266.205 229.708 266.115 227.14C266.019 224.517 264.406 225.172 263.351 224.086C263.142 223.867 261.719 222.163 261.506 221.859C259.22 218.636 259.788 212.009 262.474 209.182C264.242 207.323 266.501 208.169 266.005 204.687C265.796 203.224 262.66 201.828 261.629 200.315C259.665 197.438 259.72 192.738 261.251 189.702C262.169 187.884 263.947 185.984 265.951 185.503C265.996 184.68 266.074 183.798 265.987 182.971C265.805 181.18 264.946 181.716 263.733 180.703C261.406 178.758 260.22 177.012 260.124 173.922C260.042 171.254 260.629 167.386 262.701 165.504C264.556 163.823 266.964 164.186 265.996 160.414C265.237 159.932 264.328 159.655 263.597 159.118C259.501 156.105 259.592 148.892 262.66 145.251C263.219 144.588 265.733 142.611 265.837 142.397C266.083 141.893 266.083 139.843 266.001 139.211C265.774 137.457 264.624 137.879 263.787 137.275C259.07 133.861 259.12 127.921 262.119 123.29C262.374 122.894 262.874 122.153 263.201 121.872C264.987 120.335 266.555 121.381 265.969 117.822C265.696 116.167 263.856 115.94 262.824 114.936C258.992 111.222 259.697 104.5 263.156 100.792C264.242 99.6234 266.265 98.9962 266.319 97.2964C266.387 95.0965 265.046 95.6192 263.801 94.7193C258.983 91.2287 259.015 83.1476 263.26 79.1797C264.006 78.4843 265.715 77.9071 266.074 77.1481L266.305 73.7802C258.338 71.4349 257.833 58.1724 265.942 55.7681C266.774 52.1093 263.642 51.5957 261.906 49.4822C259.12 46.0916 259.647 39.1649 262.656 36.0379C264.428 34.1971 266.465 35.0107 266.001 31.5065C265.819 30.1384 265.119 30.6338 264.192 29.9975C260.261 27.2886 259.315 23.8753 260.388 19.2893C261.233 15.6714 263.374 14.9806 265.928 12.7626L265.71 5.24959C265.374 4.80872 262.06 4.78145 261.292 4.81326C260.156 4.85872 256.888 5.07233 256.302 5.86772C256.061 6.19497 256.334 6.63584 256.165 6.91309C253.384 11.4672 246.921 13.2535 242.189 10.6673C240.285 9.62649 238.158 4.99052 236.862 4.83599C236.635 4.80872 234.699 4.99507 234.526 5.10415C234.081 5.37685 233.626 6.7131 233.231 7.21761C228.945 12.7171 221.755 13.0398 217.119 7.69484C216.319 6.77219 215.778 4.85872 214.551 4.79054C212.401 4.67237 212.196 6.95854 210.969 8.33569C208.042 11.6263 201.17 12.549 197.657 9.64013C197.275 9.32652 195.389 7.44032 195.18 7.14489C194.516 6.20406 195.116 4.85417 193.234 4.99052C189.63 5.25414 191.28 8.22661 189.039 9.79012C184.803 12.7444 178.313 12.3944 175.168 7.99481C174.531 7.10853 174.145 5.04052 172.872 4.90871C172.568 4.8769 169.591 5.19051 169.445 5.28141C168.277 6.02225 167.75 8.16753 166.718 9.19471C164.364 11.54 159.292 12.0672 156.224 11.2536C153.847 10.6219 153.12 9.85829 151.692 7.94027C151.197 7.27669 150.679 5.845 150.352 5.50866C149.583 4.71782 146.388 4.82235 145.516 5.41321C144.87 5.84954 143.293 8.81293 142.493 9.55377C139.266 12.5444 132.589 12.2808 129.412 9.24016C127.949 7.84028 127.399 5.35413 124.931 5.10415C124.399 5.04961 120.831 5.13596 120.554 5.27232C120.05 5.51775 118.686 8.24025 117.513 9.16744C112.859 12.8626 106.274 10.6219 102.747 6.48131C102.537 6.23587 102.733 5.78136 102.465 5.58593C101.81 5.10415 99.7877 4.97689 98.9923 5.13142C97.5424 5.41321 97.3425 7.15398 96.7289 7.91755C95.0381 10.0128 92.3383 11.3173 89.6477 11.4718C84.5663 11.7672 81.4983 9.12654 79.3167 4.80417L76.4124 5.09506C75.9715 6.04498 75.4761 6.98126 74.8262 7.81301C73.1081 10.0174 71.4174 11.2082 68.4949 11.4582C64.7134 11.7809 61.2092 9.23562 59.0048 6.47222C58.7685 6.17679 58.7821 5.68137 58.6276 5.50866C57.9958 4.79508 54.5415 5.20414 53.478 5.17233C51.61 8.44023 50.2464 10.7309 46.1695 10.9718C42.9016 11.1673 39.2065 10.6764 36.9976 7.98572C35.8704 6.61311 36.1704 5.01779 34.0842 4.84053C33.5342 4.79508 31.6616 5.03597 31.2617 5.28141C30.6845 5.64047 30.4436 7.33578 29.8345 7.85392C26.8575 10.3992 22.7669 11.6081 18.9491 10.3446C17.4992 9.86284 17.2265 8.972 16.4857 8.63112C16.1902 8.49477 15.713 8.74475 15.1676 8.42205C14.0268 7.75847 13.4359 5.2905 12.9678 5.14505C11.8497 5.11324 10.4498 5.40867 9.39081 5.42685C8.54542 5.44048 7.81821 4.97689 6.70013 5.14051C4.42759 5.48139 5.6593 6.92218 5.64567 8.29024C5.63203 9.68558 5.08663 11.3173 5.36842 12.7717C5.56386 13.3762 7.55914 13.8307 8.31817 14.3488C12.136 16.935 12.1815 24.448 9.24537 27.825C8.51361 28.6658 5.83202 29.9884 5.47296 30.7747C5.05481 31.6928 5.45478 33.1836 5.30024 34.2017C11.6952 36.2424 12.9223 42.9055 9.9044 48.4778C8.47725 51.1139 4.89573 51.0321 5.03663 54.1273C5.13208 56.1953 6.70922 56.2362 7.74095 57.1543C12.0724 60.9903 13.2859 67.4625 8.64996 71.6667C7.53642 72.6757 5.32751 72.8302 5.30024 74.6528C5.29115 75.3846 5.75475 76.28 5.45023 77.2299C10.7316 79.9887 12.4724 85.97 9.99985 91.415C8.49543 94.7239 4.40941 94.0739 5.39569 98.7417C5.64567 99.937 6.6774 99.5507 7.74549 100.301C12.3224 103.514 12.2997 111.363 8.17727 114.936C6.55014 116.345 4.73666 116.204 5.13662 118.963C5.46387 121.217 6.34561 120.631 7.83185 121.635C12.3815 124.708 12.136 131.707 9.19082 135.87C8.18182 137.298 6.18199 137.693 5.62294 138.32C5.22752 138.761 5.15026 141.624 5.39115 142.033C5.48205 142.188 7.85457 143.388 8.40907 143.906C12.386 147.606 11.4861 154.087 8.22727 157.791C8.12728 157.905 8.33635 158.287 8.28181 158.337C8.0182 158.573 6.32743 158.978 5.81838 159.327C4.65939 160.132 5.08208 162.068 5.41387 163.291C5.76384 164.577 6.51832 164.068 7.51369 164.732C11.7133 167.513 12.486 175.176 9.14083 178.799C7.24553 180.848 4.72757 180.071 4.88664 183.884C4.973 186.003 6.94556 185.98 8.31363 187.225C10.7134 189.411 11.0907 192.497 10.7225 195.611C10.5362 197.202 9.00902 201.019 7.75913 201.992C5.78202 203.528 4.35487 202.542 5.03208 206.196C5.28661 207.564 6.50469 207.337 7.29553 207.855C8.39998 208.578 10.468 211.719 10.8361 213C11.8315 216.468 10.3953 221.609 7.88184 224.177C7.76822 224.295 5.35024 224.799 5.0139 225.581C5.10026 226.608 4.75029 228.267 5.3457 229.117C5.65476 229.558 8.05001 230.549 8.94085 231.553C11.5861 234.53 11.7315 240.643 9.54988 243.843C8.47725 245.416 4.85937 246.752 4.73666 248.17C4.50031 250.792 6.75467 250.933 8.34544 252.365C11.7951 255.474 11.7724 261.119 8.95448 264.659C8.00911 265.85 4.75938 266.868 5.00481 268.327L5.60022 268.641L5.32751 269.409C6.27289 269.173 7.37734 269.668 8.19091 269.65C10.1544 269.609 10.0544 269.077 12.1997 269.65C13.8359 270.086 14.5267 267.527 15.2812 266.541C18.6173 262.21 26.8984 262.391 30.0663 266.841C31.3435 268.641 30.539 270.227 33.8206 269.691C35.7022 269.382 35.684 267.864 36.4612 266.6C39.0701 262.369 47.3649 261.692 50.8964 265.023C52.1463 266.2 52.7826 267.8 53.5962 269.264C53.7734 269.368 57.3958 269.777 57.664 269.727C58.6776 269.545 58.3912 268.368 58.8003 267.527C61.7818 261.405 72.0764 260.987 75.4489 267.018C76.4942 268.886 75.6034 269.927 78.4804 269.723C80.8939 269.55 80.3803 268.355 81.4074 266.905C82.0301 266.028 82.6619 265.164 83.4936 264.464C87.057 261.469 93.4019 262.132 96.4334 265.65C97.1607 266.496 98.0333 268.877 98.3742 269.141C98.6969 269.391 101.219 269.627 101.783 269.623C103.21 269.618 104.392 265.914 105.524 264.769C107.569 262.701 113.364 262.151 116.023 263.26C118.75 264.4 120.195 267.273 121.613 269.636L126.704 269.132C127.69 268.218 127.926 266.687 128.717 265.723C129.917 264.264 133.026 262.732 134.903 262.641C140.139 262.387 143.243 264.973 145.075 269.65C146.552 269.532 149.124 270.195 150.429 269.55C151.302 269.118 151.383 267.914 151.947 267.15C155.697 262.055 163.873 260.955 167.768 266.418C168.541 267.5 168.768 269.582 170.186 269.741C170.495 269.777 172.95 269.623 173.072 269.545C173.995 268.959 174.581 266.668 175.359 265.828C177.663 263.328 182.003 262.128 185.299 263.069C188.117 263.873 190.385 267.009 191.048 269.741L195.098 269.577C196.134 266.982 197.343 264.469 200.216 263.532C205.747 261.732 210.492 263.878 212.583 269.282C213.587 269.182 216.069 269.614 216.66 269.118C217.241 268.632 218.11 266.5 218.928 265.655C220.941 263.578 224.073 262.66 226.918 262.76C230.018 262.869 232.167 265.287 233.826 267.646C234.517 268.627 233.913 269.318 235.74 269.65C236.222 269.736 238.635 269.759 238.849 269.564C239.271 269.177 239.353 268.023 239.685 267.405C242.457 262.255 250.411 261.905 254.384 265.787C254.684 266.078 255.988 267.65 256.234 268.009C256.511 268.418 256.352 269.541 257.229 269.854L265.001 269.641C267.419 266.732 265.483 266.855 263.728 265.496C259.102 261.923 259.67 254.633 264.174 251.161C264.837 250.652 265.896 250.452 265.956 250.379C266.024 250.293 266.219 248.429 266.201 248.188C266.078 246.588 265.006 246.961 264.192 246.329H264.187ZM253.934 252.988C253.916 253.392 253.752 255.892 253.657 256.01C253.347 256.378 253.016 256.406 252.579 256.46C245.721 257.337 236.99 255.788 229.927 256.433H196.766C143.779 256.26 91.2112 256.624 37.7748 256.433C32.0389 256.415 24.9031 256.992 19.3809 256.451C15.863 256.106 17.3356 253.02 17.2901 250.615C17.0902 240.116 17.0902 229.331 17.0856 218.868C17.0629 161.786 17.3083 104.814 17.072 48.1278C17.0583 44.8644 17.631 40.7239 17.4265 37.556C17.3674 36.6606 16.8129 36.1606 16.7993 35.7607C16.7856 35.3243 17.331 34.6926 17.4038 33.9608C17.8674 29.1067 16.8629 23.3708 17.3947 18.5666C17.4765 17.844 17.6356 17.144 18.1219 16.5759L253.575 16.9441L253.602 24.6116C253.852 93.4876 254.234 161.436 253.907 230.031C253.87 237.553 254.302 245.543 253.929 252.988H253.934Z" fill="currentColor"/>
</svg>
